<?xml version="1.0" standalone="no"?>
<!DOCTYPE svg PUBLIC "-//W3C//DTD SVG 1.1//EN" "http://www.w3.org/Graphics/SVG/1.1/DTD/svg11.dtd" >
<svg>
<metadata>
Created by FontForge 20110222 at Fri Feb 28 10:59:43 2014
 By deploy user
Digitized data copyright (C) 1992 - 2001 The Monotype Corporation. All rights reserved. AmasisTM is a trademark of the Monotype Corporation which may be registered in certain jurisdictions.
</metadata>
<defs>
<font id="AmasisMT" horiz-adv-x="682" >
  <font-face 
    font-family="Amasis MT"
    font-weight="400"
    font-stretch="normal"
    units-per-em="2048"
    panose-1="2 4 6 3 5 3 4 2 2 3"
    ascent="1638"
    descent="-410"
    x-height="971"
    cap-height="1405"
    bbox="-311 -489 2136 1887"
    underline-thickness="102"
    underline-position="-154"
    unicode-range="U+0020-FB02"
  />
<missing-glyph horiz-adv-x="2048" 
d="M256 0v1536h1536v-1536h-1536zM384 128h1280v1280h-1280v-1280z" />
    <glyph glyph-name=".notdef" horiz-adv-x="2048" 
d="M256 0v1536h1536v-1536h-1536zM384 128h1280v1280h-1280v-1280z" />
    <glyph glyph-name=".null" horiz-adv-x="0" 
 />
    <glyph glyph-name="nonmarkingreturn" horiz-adv-x="532" 
 />
    <glyph glyph-name="space" unicode=" " horiz-adv-x="532" 
 />
    <glyph glyph-name="exclam" unicode="!" horiz-adv-x="492" 
d="M162 1411h168v-121l-19 -944h-129l-20 944v121zM135 80q0 45 33 77.5t78 32.5q46 0 78 -32t32 -78t-32 -78.5t-78 -32.5q-45 0 -78 33t-33 78z" />
    <glyph glyph-name="quotedbl" unicode="&#x22;" horiz-adv-x="725" 
d="M141 858l-41 311q0 11 -4 41.5t-4 57.5q0 45 29 76.5t82 31.5q48 0 76 -33.5t28 -87.5q0 -11 -6 -57l-45 -340h-115zM467 858l-41 311q0 11 -4 41.5t-4 57.5q0 45 29 76.5t81 31.5q48 0 76.5 -33.5t28.5 -87.5q0 -11 -6 -57l-45 -340h-115z" />
    <glyph glyph-name="numbersign" unicode="#" horiz-adv-x="1366" 
d="M86 987h320l86 397h143l-86 -397h399l84 397h144l-84 -397h188v-143h-217l-72 -350h289v-144h-317l-84 -395h-144l86 395h-403l-82 -395h-146l84 395h-188v144h219l72 350h-291v143zM922 844h-402l-74 -348h402z" />
    <glyph glyph-name="dollar" unicode="$" horiz-adv-x="1004" 
d="M868 1251v-268h-123v31q0 119 -42.5 150.5t-131.5 47.5v-477q177 -75 262 -168t85 -227q0 -153 -101.5 -259t-255.5 -116v-182h-115v182q-165 4 -358 74v311h135q1 -6 2.5 -63t15 -94.5t61 -70t144.5 -44.5v538q-195 99 -264 185t-69 196q0 123 85 217t257 115v88h116
v-88q148 -12 297 -78zM455 797v417q-90 -16 -134.5 -66.5t-44.5 -121.5q0 -139 179 -229zM561 557v-471q99 22 146 82.5t47 140.5q0 76 -42.5 134.5t-150.5 113.5z" />
    <glyph glyph-name="percent" unicode="%" horiz-adv-x="1665" 
d="M1212 1442h121l-882 -1479h-123zM317 682q-130 0 -199 88t-69 291q0 381 277 381q270 0 270 -371q0 -389 -279 -389zM324 1362q-146 0 -146 -303q0 -160 36.5 -228.5t107.5 -68.5q72 0 107.5 68t35.5 241q0 160 -36.5 225.5t-104.5 65.5zM1337 -37q-268 0 -268 379
q0 381 277 381q270 0 270 -371q0 -389 -279 -389zM1343 643q-145 0 -145 -303q0 -161 36.5 -230t106.5 -69q73 0 108.5 68.5t35.5 242.5q0 160 -37 225.5t-105 65.5z" />
    <glyph glyph-name="ampersand" unicode="&#x26;" horiz-adv-x="1450" 
d="M922 766h434v-94h-56q-46 0 -70 -19t-42 -86q-60 -216 -131 -315q71 -85 121 -119.5t127 -34.5q31 0 51 8v-114q-69 -29 -131 -29q-144 0 -275 158q-167 -158 -393 -158q-203 0 -328 113t-125 293q0 252 318 417q-8 15 -16 23q-87 125 -107 184t-20 111q0 125 92.5 209
t244.5 84q160 0 241 -80.5t81 -196.5q0 -102 -64.5 -185.5t-228.5 -168.5l322 -404q41 69 61.5 143.5t20.5 104.5q0 62 -91 62h-36v94zM567 858q125 69 171 129t46 133q0 74 -49.5 121t-124.5 47q-80 0 -126 -45.5t-46 -107.5q0 -116 129 -277zM864 225l-362 459
q-223 -133 -223 -301q0 -107 83 -195t205 -88q165 0 297 125z" />
    <glyph glyph-name="quotesingle" unicode="'" horiz-adv-x="385" 
d="M133 858l-41 311q0 11 -4 41.5t-4 57.5q0 45 29 76.5t82 31.5q47 0 75.5 -33.5t28.5 -87.5q0 -11 -6 -57l-45 -340h-115z" />
    <glyph glyph-name="parenleft" unicode="(" horiz-adv-x="618" 
d="M410 1442h147q-125 -211 -185.5 -394t-74.5 -306.5t-14 -247.5t14 -248.5t74.5 -307t185.5 -391.5h-147q-143 199 -224.5 442.5t-81.5 491.5q0 511 306 961z" />
    <glyph glyph-name="parenright" unicode=")" horiz-adv-x="618" 
d="M209 -453h-148q126 212 186.5 395t74.5 306.5t14 247.5q0 123 -14 247.5t-74.5 307.5t-186.5 391h148q142 -199 223.5 -442.5t81.5 -491.5q0 -510 -305 -961z" />
    <glyph glyph-name="asterisk" unicode="*" horiz-adv-x="981" 
d="M418 1442h141v-66l-16 -282l268 98l63 20l44 -133l-336 -92l174 -225l39 -57l-113 -80l-39 57l-151 236l-158 -236l-41 -53l-113 82l39 55l182 221l-276 72l-62 20l43 133l62 -20l264 -102l-14 286v66z" />
    <glyph glyph-name="plus" unicode="+" horiz-adv-x="1366" 
d="M135 745h467v469h158v-469h471v-157h-471v-467h-158v467h-467v157z" />
    <glyph glyph-name="comma" unicode="," horiz-adv-x="492" 
d="M119 -276v79q131 66 143 179q-64 -3 -96.5 33t-32.5 81t32 77t77 32q60 0 96.5 -49.5t36.5 -122.5q0 -97 -62.5 -180.5t-193.5 -128.5z" />
    <glyph glyph-name="hyphen" unicode="-" horiz-adv-x="662" 
d="M63 559h535v-158h-535v158z" />
    <glyph glyph-name="period" unicode="." horiz-adv-x="492" 
d="M135 80q0 45 33 77.5t78 32.5q46 0 78 -32t32 -78t-32 -78.5t-78 -32.5q-45 0 -78 33t-33 78z" />
    <glyph glyph-name="slash" unicode="/" horiz-adv-x="1130" 
d="M836 1405h168l-697 -1405h-168z" />
    <glyph glyph-name="zero" unicode="0" horiz-adv-x="1065" 
d="M524 -29q-203 0 -309 166.5t-106 536.5q0 351 110 526.5t318 175.5q212 0 316.5 -166.5t104.5 -517.5q0 -721 -434 -721zM535 1251q-131 0 -193.5 -139t-62.5 -442q0 -314 64 -444t189 -130q126 0 189 127t63 469q0 312 -64.5 435.5t-184.5 123.5z" />
    <glyph glyph-name="one" unicode="1" horiz-adv-x="1065" 
d="M565 1376h90v-1190q0 -46 16 -66t77 -20h92v-100h-537v100h115q52 0 65 20.5t13 65.5v826q0 56 -12 71t-32 15q-25 0 -51 -2l-125 -11v91q205 24 289 200z" />
    <glyph glyph-name="two" unicode="2" horiz-adv-x="1065" 
d="M160 987v238q164 151 370 151q172 0 266.5 -101t94.5 -243q0 -223 -200 -469.5t-363 -415.5h362q77 0 97 14.5t20 67.5v86h127v-315h-809v125q385 412 491.5 587t106.5 312q0 95 -59 163t-168 68q-98 0 -154.5 -51t-56.5 -151v-66h-125z" />
    <glyph glyph-name="three" unicode="3" horiz-adv-x="1065" 
d="M176 1014v250q167 112 342 112q180 0 275.5 -95t95.5 -234q0 -104 -55 -190t-162 -128v-4q120 -38 179.5 -128t59.5 -204q0 -174 -114 -298t-326 -124q-184 0 -332 95v272h131v-82q0 -160 207 -160q125 0 198 80.5t73 200.5q0 125 -74 192.5t-277 79.5v135q332 8 332 248
q0 96 -56 163t-167 67q-85 0 -146 -44.5t-61 -142.5v-61h-123z" />
    <glyph glyph-name="four" unicode="4" horiz-adv-x="1065" 
d="M678 1376h139v-907h160v-125h-160v-141q0 -62 15 -82.5t83 -20.5h48v-100h-476v100h86q63 0 80 14t17 72v158h-572v158zM666 1137l-439 -668h443v668h-4z" />
    <glyph glyph-name="five" unicode="5" horiz-adv-x="1065" 
d="M223 1350h658v-144h-527l-18 -356q84 59 207 59q181 0 281 -124.5t100 -313.5q0 -204 -113 -352t-336 -148q-176 0 -313 101v278h137v-65q0 -58 8.5 -97.5t45 -68.5t114.5 -29q141 0 215 101.5t74 265.5q0 154 -70.5 240.5t-179.5 86.5q-122 0 -193 -98h-123z" />
    <glyph glyph-name="six" unicode="6" horiz-adv-x="1065" 
d="M928 1303v-248h-129v30q0 54 -8.5 89.5t-46 62.5t-115.5 27q-304 0 -340 -516l4 -5q129 146 299 146q164 0 272.5 -115.5t108.5 -327.5q0 -203 -113.5 -339t-320.5 -136q-215 0 -324 156t-109 457q0 358 135 575t398 217q164 0 289 -73zM807 432q0 152 -67.5 238
t-188.5 86q-117 0 -191.5 -86.5t-74.5 -239.5q0 -166 76 -255t184 -89q110 0 186 86t76 260z" />
    <glyph glyph-name="seven" unicode="7" horiz-adv-x="1065" 
d="M154 1350h809v-146q-171 -235 -301.5 -554t-139.5 -664h-151q5 310 127 634.5t305 581.5h-455q-41 0 -54 -9t-13 -52v-107h-127v316z" />
    <glyph glyph-name="eight" unicode="8" horiz-adv-x="1065" 
d="M741 713q220 -105 220 -330q0 -169 -113 -290.5t-313 -121.5q-213 0 -321 117.5t-108 286.5q0 231 220 338q-187 101 -187 297q0 156 109 261t295 105q177 0 280 -99.5t103 -254.5q0 -205 -185 -309zM532 1255q-101 0 -166 -65.5t-65 -169.5q0 -124 67.5 -188t166.5 -64
q100 0 164.5 66t64.5 182q0 108 -63 173.5t-169 65.5zM535 641q-115 0 -187 -77t-72 -191q0 -128 73 -203.5t190 -75.5q114 0 183 76t69 197q0 123 -69 198.5t-187 75.5z" />
    <glyph glyph-name="nine" unicode="9" horiz-adv-x="1065" 
d="M152 47v246h129v-29q0 -53 8.5 -89t45.5 -62.5t116 -26.5q304 0 340 514l-5 4q-129 -143 -299 -143q-165 0 -273 114.5t-108 325.5q0 205 113.5 340t321.5 135q214 0 323 -155.5t109 -456.5q0 -358 -135 -575.5t-398 -217.5q-161 0 -288 76zM272 915q0 -151 68 -237
t188 -86q117 0 192 87t75 241q0 165 -77 254.5t-183 89.5q-111 0 -187 -86.5t-76 -262.5z" />
    <glyph glyph-name="colon" unicode=":" horiz-adv-x="492" 
d="M135 889q0 45 33 77.5t78 32.5q46 0 78 -32t32 -78t-32 -78.5t-78 -32.5q-45 0 -78 32.5t-33 78.5zM135 80q0 45 33 77.5t78 32.5q46 0 78 -32t32 -78t-32 -78.5t-78 -32.5q-45 0 -78 33t-33 78z" />
    <glyph glyph-name="semicolon" unicode=";" horiz-adv-x="492" 
d="M135 889q0 45 33 77.5t78 32.5q46 0 78 -32t32 -78t-32 -78.5t-78 -32.5q-45 0 -78 32.5t-33 78.5zM119 -276v79q131 66 143 179q-64 -3 -96.5 33t-32.5 81t32 77t77 32q60 0 96.5 -49.5t36.5 -122.5q0 -97 -62.5 -180.5t-193.5 -128.5z" />
    <glyph glyph-name="less" unicode="&#x3c;" horiz-adv-x="1366" 
d="M1231 137l-1096 459v143l1096 459v-170l-883 -360l883 -361v-170z" />
    <glyph glyph-name="equal" unicode="=" horiz-adv-x="1366" 
d="M135 985h1096v-158h-1096v158zM135 512h1096v-158h-1096v158z" />
    <glyph glyph-name="greater" unicode="&#x3e;" horiz-adv-x="1366" 
d="M135 1198l1096 -461v-141l-1096 -459v170l883 359l-883 360v172z" />
    <glyph glyph-name="question" unicode="?" horiz-adv-x="874" 
d="M66 1063v258q165 121 356 121q185 0 284 -95t99 -241q0 -99 -40 -170.5t-143.5 -198t-138 -211.5t-39.5 -194h-131q-2 225 130 405l100 131q44 59 69 118.5t25 127.5q0 88 -60 149.5t-165 61.5q-82 0 -130 -33t-66.5 -70t-18.5 -114v-45h-131zM270 80q0 45 33 77.5
t78 32.5q46 0 78.5 -32t32.5 -78t-32.5 -78.5t-78.5 -32.5q-45 0 -78 33t-33 78z" />
    <glyph glyph-name="at" unicode="@" horiz-adv-x="2068" 
d="M1346 1055h182l-168 -771q-10 -47 -10 -65q0 -59 61 -59q68 0 167.5 76t163.5 204t64 281q0 281 -208.5 456t-514.5 175q-363 0 -594 -251t-231 -622q0 -213 94 -392.5t304.5 -276.5t471.5 -97q465 0 705 305h172q-109 -198 -338 -323t-545 -125q-484 0 -750 250
t-266 651q0 263 119 506t341 379.5t526 136.5q399 0 631.5 -228.5t232.5 -547.5q0 -283 -189.5 -500t-410.5 -217q-93 0 -141.5 35t-53.5 129q-153 -164 -307 -164t-258 131.5t-104 317.5q0 225 154 429.5t364 204.5q184 0 305 -182zM1024 934q-145 0 -245.5 -160.5
t-100.5 -343.5q0 -126 60.5 -204.5t146.5 -78.5q146 0 258 153t112 355q0 123 -64 201t-167 78z" />
    <glyph glyph-name="A" unicode="A" horiz-adv-x="1386" 
d="M610 1423h168l418 -1190q31 -90 56.5 -111.5t76.5 -21.5h39v-100h-461v100h54q45 0 63 7.5t18 39.5q0 22 -22 86l-76 218h-538l-80 -226q-4 -8 -11.5 -34t-7.5 -39q0 -24 16.5 -38t67.5 -14h58v-100h-431v100h37q58 0 82 26t45 85zM672 1210l-223 -637h450l-223 637h-4z
" />
    <glyph glyph-name="B" unicode="B" horiz-adv-x="1280" 
d="M84 1305v102l506 -2q180 0 278 -29t162 -112t64 -207q0 -218 -195 -303v-4q287 -62 287 -351q0 -128 -61.5 -220t-156 -136t-290.5 -43l-594 2v100h49q65 0 78.5 20t13.5 89v999q0 57 -14 76t-78 19h-49zM401 1280v-489h195q324 0 324 256q0 233 -293 233h-226zM401 668
v-545h291q309 0 309 264q0 131 -77.5 206t-286.5 75h-236z" />
    <glyph glyph-name="C" unicode="C" horiz-adv-x="1366" 
d="M1260 1327v-317h-148q-3 153 -20.5 193.5t-107.5 75t-198 34.5q-225 0 -359 -164.5t-134 -441.5q0 -280 144 -437t347 -157q117 0 244 43.5t232 134.5v-172q-198 -156 -496 -156t-478 204.5t-180 524.5q0 324 187.5 537t501.5 213q265 0 465 -115z" />
    <glyph glyph-name="D" unicode="D" horiz-adv-x="1493" 
d="M92 1405h600q151 0 264.5 -26t213 -107.5t160.5 -224t61 -336.5q0 -298 -159.5 -504.5t-492.5 -206.5h-647v100h47q64 0 77 19.5t13 91.5v991q0 61 -13.5 81t-76.5 20h-47v102zM657 1276h-251v-1153h284q210 4 311.5 78.5t150 199.5t48.5 301q0 201 -59.5 321.5t-147 174
t-168 66t-168.5 12.5z" />
    <glyph glyph-name="E" unicode="E" horiz-adv-x="1237" 
d="M98 1405h1028v-315h-131v102q0 60 -21 73t-106 13h-456v-494h360q64 0 80 17t16 73v48h117v-404h-117v64q0 52 -21 66t-85 14h-350v-537h518q61 0 75.5 20t14.5 78v88h129v-311h-1051v100h49q61 0 75 20t14 79v1015q0 51 -15.5 70t-73.5 19h-49v102z" />
    <glyph glyph-name="F" unicode="F" horiz-adv-x="1194" 
d="M98 1405h1039v-313h-129v82q0 66 -17 84t-98 18h-479v-485h334q66 0 82 17t16 79v37h115v-402h-115v53q0 57 -18.5 73t-92.5 16h-321v-461q0 -64 14.5 -83.5t81.5 -19.5h59v-100h-471v100h43q68 0 82.5 22.5t14.5 98.5v981q0 63 -16.5 82t-86.5 19h-37v102z" />
    <glyph glyph-name="G" unicode="G" horiz-adv-x="1450" 
d="M938 668h469v-103h-55q-62 0 -75 -20.5t-13 -89.5v-355q-227 -137 -480 -137q-325 0 -505.5 209t-180.5 522q0 328 194.5 538t522.5 210q248 0 449 -111v-321h-146v69q0 61 -15 112t-104 87.5t-198 36.5q-242 0 -377 -170.5t-135 -437.5q0 -276 139 -441.5t367 -165.5
q138 0 292 70v285q0 71 -14 90.5t-82 19.5h-53v103z" />
    <glyph glyph-name="H" unicode="H" horiz-adv-x="1536" 
d="M92 1405h453v-102h-43q-65 0 -79.5 -20.5t-14.5 -76.5v-393h722v393q0 61 -15.5 79t-84.5 18h-39v102h453v-102h-47q-64 0 -77 -19.5t-13 -89.5v-995q0 -59 14.5 -79t75.5 -20h47v-100h-453v100h39q60 0 80 12.5t20 86.5v485h-722v-485q0 -56 15 -77.5t79 -21.5h43v-100
h-453v100h51q62 0 75 19t13 80v1007q0 58 -14.5 77.5t-81.5 19.5h-43v102z" />
    <glyph glyph-name="I" unicode="I" 
d="M115 1405h452v-105h-35q-72 0 -87 -19.5t-15 -96.5v-963q0 -91 18 -106t84 -15h35v-100h-452v100h41q61 0 78.5 14t17.5 97v989q0 64 -14.5 82t-81.5 18h-41v105z" />
    <glyph glyph-name="J" unicode="J" horiz-adv-x="981" 
d="M453 1405h462v-102h-49q-62 0 -76 -20t-14 -81v-792q0 -220 -106.5 -333.5t-313.5 -113.5q-157 0 -290 70v272h131v-63q0 -160 176 -160q103 0 153 50t62 119.5t12 170.5v788q0 54 -14.5 73.5t-77.5 19.5h-55v102z" />
    <glyph glyph-name="K" unicode="K" horiz-adv-x="1323" 
d="M92 1405h453v-102h-41q-68 0 -82 -18t-14 -83v-454l447 457q12 8 28 28t16 37q0 16 -13 24.5t-65 8.5v102h451v-102q-83 0 -131.5 -19.5t-108.5 -81.5l-440 -454l504 -519q62 -64 116 -96.5t131 -32.5v-100h-509v100h40q54 0 54 35q0 24 -15.5 40t-38.5 40l-466 485v-485
q0 -74 14 -94.5t82 -20.5h41v-100h-453v100h51q55 0 71.5 16.5t16.5 45.5v1040q0 57 -14 79t-74 22h-51v102z" />
    <glyph glyph-name="L" unicode="L" horiz-adv-x="1174" 
d="M98 1405h471v-102h-53q-76 0 -89 -19t-13 -90v-1071h485q52 0 69 16.5t17 79.5v113h133v-332h-1020v100h43q68 0 82.5 20t14.5 85v1005q0 55 -15.5 74t-81.5 19h-43v102z" />
    <glyph glyph-name="M" unicode="M" horiz-adv-x="1812" 
d="M96 1405h408l401 -1208h4l404 1208h403v-102h-41q-67 0 -81.5 -19.5t-14.5 -85.5v-1001q0 -60 14.5 -78.5t81.5 -18.5h41v-100h-442v100h39q71 0 84.5 19t13.5 100v1084h-4l-434 -1303h-168l-434 1296h-4v-1099q0 -57 15 -77t79 -20h43v-100h-408v100h45q66 0 80.5 20.5
t14.5 86.5v991q0 65 -14.5 85t-80.5 20h-45v102z" />
    <glyph glyph-name="N" unicode="N" horiz-adv-x="1473" 
d="M92 1405h404l634 -1139h5v932q0 66 -15.5 85.5t-89.5 19.5h-35v102h418v-102h-45q-66 0 -80 -20t-14 -85v-1216h-182l-717 1286h-4v-1063q0 -65 14.5 -85t81.5 -20h41v-100h-416v100h49q62 0 75 21t13 94v997q0 55 -14.5 73t-79.5 18h-43v102z" />
    <glyph glyph-name="O" unicode="O" horiz-adv-x="1556" 
d="M770 -37q-295 0 -480.5 198.5t-185.5 524.5q0 344 187.5 550t490.5 206q313 0 491.5 -204.5t178.5 -528.5q0 -331 -190 -538.5t-492 -207.5zM780 1307q-238 0 -361.5 -163.5t-123.5 -443.5q0 -308 135.5 -455t349.5 -147q224 0 352 165t128 460q0 281 -130 432.5
t-350 151.5z" />
    <glyph glyph-name="P" unicode="P" horiz-adv-x="1217" 
d="M88 1303v102h571q247 0 354 -101t107 -284q0 -143 -74 -242.5t-192.5 -123t-194.5 -23.5h-256v-443q0 -55 19 -71.5t94 -16.5h43v-100h-471v100h35q73 0 88.5 19t15.5 84v1005q0 58 -16 76.5t-88 18.5h-35zM403 1280v-528h201q184 0 263 67.5t79 192.5q0 268 -305 268
h-238z" />
    <glyph glyph-name="Q" unicode="Q" horiz-adv-x="1556" 
d="M1384 -176v-111q-44 -6 -120 -6q-415 0 -666 275q-242 68 -368 252.5t-126 457.5q0 335 186 542.5t492 207.5q313 0 491.5 -204.5t178.5 -528.5q0 -290 -149.5 -492t-421.5 -246q150 -150 503 -147zM780 1307q-238 0 -361.5 -163.5t-123.5 -443.5q0 -308 135.5 -455
t349.5 -147q224 0 352 165t128 460q0 281 -130 432.5t-350 151.5z" />
    <glyph glyph-name="R" unicode="R" horiz-adv-x="1300" 
d="M88 1303v102h576q228 0 341 -97.5t113 -279.5q0 -287 -274 -377l237 -420q41 -72 87 -101.5t114 -29.5h47v-100h-315l-350 631h-263v-436q0 -56 15.5 -75.5t81.5 -19.5h41v-100h-451v100h39q70 0 84 20t14 95v991q0 59 -15 78t-83 19h-39zM401 1282v-530h205
q181 0 259.5 69t78.5 195q0 266 -311 266h-232z" />
    <glyph glyph-name="S" unicode="S" horiz-adv-x="1087" 
d="M950 1354v-310h-137v54q0 102 -19 132t-79.5 60.5t-159.5 30.5q-123 0 -187.5 -62.5t-64.5 -148.5q0 -72 38.5 -124t103.5 -92t190 -102.5t196 -110t119.5 -123.5t48.5 -189q0 -168 -117.5 -287t-346.5 -119q-255 0 -441 82v352h148v-78q0 -67 16.5 -108t59 -70.5
t97.5 -43t115 -13.5q125 0 207 68.5t82 179.5q0 81 -45 147.5t-212 150t-247.5 136t-135 130t-54.5 185.5q0 148 116.5 254.5t325.5 106.5q83 0 189 -22.5t194 -65.5z" />
    <glyph glyph-name="T" unicode="T" horiz-adv-x="1323" 
d="M49 1405h1225v-338h-131v127q0 53 -15 70.5t-84 17.5h-294v-1071q0 -73 15 -92t89 -19h43v-100h-471v100h57q63 0 76.5 18.5t13.5 82.5v1081h-286q-74 0 -90.5 -18.5t-16.5 -89.5v-107h-131v338z" />
    <glyph glyph-name="U" unicode="U" horiz-adv-x="1473" 
d="M61 1405h459v-102h-49q-64 0 -77 -20.5t-13 -94.5v-684q0 -225 97 -316.5t274 -91.5q175 0 272.5 88.5t97.5 298.5v705q0 75 -13.5 95t-78.5 20h-45v102h426v-102h-51q-59 0 -71.5 -19t-12.5 -82v-708q0 -531 -531 -531q-544 0 -544 520v719q0 60 -16.5 80.5t-86.5 20.5
h-37v102z" />
    <glyph glyph-name="V" unicode="V" horiz-adv-x="1386" 
d="M18 1405h471v-102h-47q-55 0 -70.5 -12t-15.5 -34q0 -21 19 -73l336 -959h4l334 938q20 59 20 82q0 58 -90 58h-45v102h434v-102h-41q-42 0 -66.5 -18.5t-41.5 -65.5l-443 -1237h-166l-420 1187q-32 93 -53.5 113.5t-77.5 20.5h-41v102z" />
    <glyph glyph-name="W" unicode="W" horiz-adv-x="1962" 
d="M18 1405h459v-102h-61q-45 0 -58.5 -12.5t-13.5 -33.5q0 -26 12 -71l252 -930h4l303 1149h166l299 -1149h4l246 903q17 58 17 88q0 26 -16.5 41t-76.5 15h-43v102h433v-102h-29q-70 0 -98 -33.5t-50 -112.5l-321 -1175h-168l-297 1148h-4l-303 -1148h-172l-312 1177
q-24 93 -51 118.5t-84 25.5h-37v102z" />
    <glyph glyph-name="X" unicode="X" horiz-adv-x="1366" 
d="M74 1405h479v-102h-27q-71 0 -71 -43q0 -18 37 -82l208 -320l211 303q50 71 50 107q0 35 -60 35h-43v102h440v-102q-51 0 -81.5 -7.5t-67.5 -40t-88 -106.5l-285 -410l307 -469q54 -80 91 -116.5t67 -45t80 -8.5v-100h-481v100h41q37 0 50 7.5t13 25.5q0 25 -33 76
l-241 373l-264 -379q-33 -46 -33 -68q0 -35 63 -35h43v-100h-434v100h29q55 0 96.5 25.5t112.5 128.5l309 451l-299 456q-61 94 -103.5 118.5t-115.5 23.5v102z" />
    <glyph glyph-name="Y" unicode="Y" horiz-adv-x="1343" 
d="M14 1405h469v-102h-41q-73 0 -73 -37q0 -13 34 -72l289 -487l295 467q43 66 43 90q0 18 -13.5 28.5t-66.5 10.5h-57v102h436v-102q-59 0 -88 -9.5t-78 -87.5l-407 -643v-360q0 -68 15.5 -85.5t92.5 -17.5h39v-100h-469v100h49q67 0 82 20.5t15 82.5v350l-387 641
q-38 61 -67 85t-81 24h-31v102z" />
    <glyph glyph-name="Z" unicode="Z" horiz-adv-x="1260" 
d="M117 1405h1030v-131l-848 -1143h637q71 0 91 14t20 101v112h129v-358h-1088v131l848 1143h-549q-99 0 -120 -14t-21 -86v-115h-129v346z" />
    <glyph glyph-name="bracketleft" unicode="[" horiz-adv-x="598" 
d="M137 1405h391v-113h-243v-1607h243v-115h-391v1835z" />
    <glyph glyph-name="backslash" unicode="\" horiz-adv-x="1130" 
d="M133 1405h168l696 -1405h-168z" />
    <glyph glyph-name="bracketright" unicode="]" horiz-adv-x="598" 
d="M461 -430h-391v113h243v1607h-243v115h391v-1835z" />
    <glyph glyph-name="asciicircum" unicode="^" horiz-adv-x="961" 
d="M227 604h-164l343 801h145l346 -801h-164l-256 598z" />
    <glyph glyph-name="underscore" unicode="_" horiz-adv-x="1024" 
d="M1036 -256h-1048v102h1048v-102z" />
    <glyph glyph-name="grave" unicode="`" 
d="M449 1110h-113l-219 264h198z" />
    <glyph glyph-name="a" unicode="a" horiz-adv-x="1004" 
d="M162 688v205q155 106 342 106q62 0 128 -15t121.5 -60t71 -111t15.5 -180v-402q0 -67 9.5 -99t41.5 -32q38 0 88 29v-100q-97 -54 -172 -54q-110 0 -127 154q-118 -154 -297 -154q-132 0 -216.5 70t-84.5 207q0 152 110.5 232.5t487.5 164.5q0 150 -52 198t-141 48
q-196 0 -196 -164v-43h-129zM680 399v144q-283 -69 -358.5 -123t-75.5 -150q0 -77 49.5 -122.5t122.5 -45.5q87 0 174.5 58.5t87.5 238.5z" />
    <glyph glyph-name="b" unicode="b" horiz-adv-x="1087" 
d="M-10 1411l305 31v-602h4q37 67 116.5 113t180.5 46q194 0 299.5 -140t105.5 -349q0 -229 -117 -382t-306 -153q-171 0 -285 131l-62 -131h-98v1262q0 58 -15 72t-73 14h-55v88zM561 868q-137 0 -207.5 -106.5t-70.5 -294.5q0 -172 79.5 -265t200.5 -93t192.5 102.5
t71.5 277.5q0 178 -70 278.5t-196 100.5z" />
    <glyph glyph-name="c" unicode="c" horiz-adv-x="981" 
d="M885 911v-284h-137v88q0 93 -47 129.5t-136 36.5q-136 0 -217.5 -104t-81.5 -285q0 -191 84.5 -285t208.5 -94q157 0 326 135v-150q-154 -129 -355 -129q-206 0 -320 140.5t-114 359.5q0 248 137 386t340 138q161 0 312 -82z" />
    <glyph glyph-name="d" unicode="d" horiz-adv-x="1110" 
d="M647 1411l305 31v-1231q0 -62 11.5 -81t62.5 -19q23 0 64 4v-90l-283 -25q-13 60 -14 143h-5q-96 -168 -299 -168q-195 0 -299 139t-104 351q0 229 117.5 381.5t316.5 152.5q170 0 266 -131h5v371q0 54 -12 70t-68 16h-64v86zM524 868q-130 0 -197 -106t-67 -275
q0 -202 79 -290t191 -88q123 0 198 101.5t75 285.5q0 178 -73 275t-206 97z" />
    <glyph glyph-name="e" unicode="e" horiz-adv-x="1004" 
d="M930 500h-670q2 -191 81 -291t226 -100q169 0 340 153v-149q-158 -144 -370 -144t-330.5 139.5t-118.5 360.5q0 237 124 383.5t325 146.5q163 0 278 -108.5t115 -390.5zM270 612h492q-21 277 -236 277q-99 0 -167 -69.5t-89 -207.5z" />
    <glyph glyph-name="f" unicode="f" horiz-adv-x="575" 
d="M47 852v119h131v110q0 179 92 270t242 91q103 0 215 -56v-186h-119v41q0 111 -108 111q-76 0 -116 -59.5t-40 -239.5v-82h205v-119h-205v-655q0 -81 11.5 -93t76.5 -12h47v-92h-432v92h43q61 0 74.5 20.5t13.5 84.5v655h-131z" />
    <glyph glyph-name="g" unicode="g" horiz-adv-x="1044" 
d="M1010 971v-121h-181q70 -87 70 -219q0 -85 -33 -161t-97.5 -122.5t-128.5 -57.5t-206 -18q-53 -3 -87 -26t-34 -53t40 -48.5t149 -25.5l200 -11q94 -6 139.5 -18.5t80 -39.5t59.5 -69t25 -106q0 -133 -118 -230.5t-386 -97.5q-445 0 -445 238q0 178 224 227v4
q-121 45 -121 129q0 122 174 168v4q-99 39 -152 123t-53 195q0 157 102.5 260.5t290.5 103.5q71 0 127 -14l51 -14h310zM516 901q-112 0 -168.5 -76t-56.5 -182q0 -132 64 -199t169 -67q98 0 156.5 67t58.5 189q0 128 -61 198t-162 70zM522 -31q-319 0 -319 -153
q0 -79 85.5 -119.5t227.5 -40.5q165 0 249.5 49t84.5 127q0 69 -73 103t-255 34z" />
    <glyph glyph-name="h" unicode="h" horiz-adv-x="1087" 
d="M16 1409l303 33v-606h5q94 155 297 155q146 0 228.5 -82t82.5 -280v-459q0 -53 10.5 -65.5t65.5 -12.5h39v-92h-400v92h33q61 0 72.5 15.5t11.5 93.5v413q0 139 -50 191.5t-139 52.5q-124 0 -190 -85.5t-66 -246.5v-344q0 -60 11.5 -75t64.5 -15h39v-92h-393v92h41
q51 0 63.5 17.5t12.5 80.5v1039q0 66 -13.5 78t-76.5 12h-52v90z" />
    <glyph glyph-name="i" unicode="i" horiz-adv-x="512" 
d="M131 1317q0 45 33 77.5t78 32.5q46 0 78 -32t32 -78q0 -47 -31.5 -79t-78.5 -32q-46 0 -78.5 32.5t-32.5 78.5zM39 956l299 27v-799q0 -62 9.5 -77t58.5 -15h47v-92h-396v92h47q48 0 61 16t13 85v563q0 74 -13.5 90t-74.5 16h-51v94z" />
    <glyph glyph-name="j" unicode="j" horiz-adv-x="512" 
d="M145 1315q0 45 33 77.5t78 32.5q46 0 78.5 -32t32.5 -78t-32.5 -79.5t-78.5 -33.5t-78.5 33.5t-32.5 79.5zM45 862v94l305 27v-1003q0 -237 -76.5 -336t-224.5 -99q-106 0 -184 31v195h108q0 -79 24.5 -104t68.5 -25q64 0 91 49t27 256v831q0 49 -13 67.5t-60 18.5
l-21 -2h-45z" />
    <glyph glyph-name="k" unicode="k" horiz-adv-x="1004" 
d="M12 1411l303 31v-889l299 240q43 33 43 57q0 13 -11 20t-66 7v94h409v-94q-55 1 -82.5 -12t-89.5 -60l-328 -252l365 -369q95 -95 180 -92v-92h-411v92q42 0 52.5 7t10.5 20q0 23 -43 65l-328 326v-326q0 -62 10.5 -77t61.5 -15h45v-92h-393v92h37q55 0 66.5 17.5
t11.5 87.5v1042q0 61 -13.5 72.5t-70.5 11.5h-58v88z" />
    <glyph glyph-name="l" unicode="l" horiz-adv-x="512" 
d="M33 1319v90l307 33v-1252q0 -66 11.5 -82t70.5 -16h33v-92h-402v92h31q62 0 77 15t15 83v1035q0 52 -6 69.5t-32 22t-105 2.5z" />
    <glyph glyph-name="m" unicode="m" horiz-adv-x="1706" 
d="M35 944l278 27q21 -66 21 -144h4q91 166 297 166q223 0 289 -186q103 180 313 180q149 0 232 -80.5t83 -273.5v-447q0 -66 10.5 -80t65.5 -14h35v-92h-397v92h39q57 0 70.5 19.5t13.5 93.5v391q0 158 -50.5 210t-138.5 52q-99 0 -177.5 -67t-78.5 -254v-351
q0 -65 11 -79.5t69 -14.5h31v-92h-393v92q83 0 100.5 12.5t17.5 100.5v391q0 155 -50 209.5t-138 54.5q-126 0 -191 -83t-65 -228v-363q0 -63 10 -78.5t60 -15.5h43v-92h-396v92h43q53 0 64.5 20.5t11.5 82.5v565q0 81 -18.5 88.5t-75.5 7.5h-43v88z" />
    <glyph glyph-name="n" unicode="n" horiz-adv-x="1110" 
d="M39 946l278 27q9 -20 19 -142q101 162 305 162q146 0 227.5 -81.5t81.5 -278.5v-463q0 -53 10.5 -65.5t65.5 -12.5h39v-92h-397v92h32q72 0 77 21.5t5 87.5v417q0 138 -50 190t-140 52q-112 0 -184 -76.5t-72 -253.5v-346q0 -64 12 -78t66 -14h41v-92h-396v92h39
q55 0 66.5 18.5t11.5 79.5v568q0 62 -8 80t-47 18q-47 0 -82 -2v92z" />
    <glyph glyph-name="o" unicode="o" horiz-adv-x="1110" 
d="M569 993q212 0 333.5 -131t121.5 -364q0 -219 -125 -374t-358 -155q-221 0 -338 137.5t-117 360.5q0 229 128 377.5t355 148.5zM557 88q133 0 214 105t81 294q0 193 -79 290t-216 97q-141 0 -221 -108.5t-80 -288.5q0 -168 80 -278.5t221 -110.5z" />
    <glyph glyph-name="p" unicode="p" horiz-adv-x="1110" 
d="M23 944l278 27q12 -68 12 -144h4q109 166 301 166q187 0 296.5 -136t109.5 -349q0 -222 -115 -380.5t-315 -158.5q-170 0 -279 129v-336q0 -70 12 -84t68 -14h54v-94h-412v94h37q60 0 71 15t11 90v987q0 67 -12 82.5t-70 15.5h-51v90zM580 860q-124 0 -201.5 -105.5
t-77.5 -273.5q0 -191 80.5 -287t204.5 -96q129 0 196.5 106t67.5 275q0 176 -69.5 278.5t-200.5 102.5z" />
    <glyph glyph-name="q" unicode="q" horiz-adv-x="1087" 
d="M858 993h96v-1220q0 -68 5.5 -83t22.5 -20.5t91 -5.5v-94h-414v94h39q84 0 92.5 20t8.5 99v350h-4q-100 -164 -306 -164q-186 0 -292.5 143.5t-106.5 352.5q0 223 116 375.5t312 152.5q174 0 281 -125zM809 496q0 169 -72 268.5t-207 99.5q-125 0 -196.5 -107t-71.5 -276
q0 -176 74 -279.5t196 -103.5q113 0 195 94t82 304z" />
    <glyph glyph-name="r" unicode="r" horiz-adv-x="725" 
d="M45 942l270 29q19 -105 19 -178h4q102 190 280 190q57 0 103 -25v-202h-113v28q0 66 -59 66q-77 0 -145 -113t-68 -307v-268q0 -45 16 -57.5t54 -12.5h57v-92h-400v92h31q48 0 67 13.5t19 78.5v580q0 57 -13 72.5t-67 15.5h-55v90z" />
    <glyph glyph-name="s" unicode="s" horiz-adv-x="854" 
d="M729 934v-254h-123v72q0 84 -50.5 114.5t-131.5 30.5q-84 0 -129 -39t-45 -100q0 -65 47.5 -101.5t164 -86.5t176 -84.5t100 -89.5t40.5 -136q0 -121 -91.5 -206t-274.5 -85q-165 0 -328 64v276h133v-78q0 -91 52 -124t145 -33q101 0 151.5 45.5t50.5 116.5
q0 96 -165 176l-95 45q-95 45 -142 73.5t-82.5 77.5t-35.5 121q0 113 88.5 189.5t247.5 76.5q165 0 297 -61z" />
    <glyph glyph-name="t" unicode="t" horiz-adv-x="641" 
d="M231 1235h97v-264h258v-119h-258v-588q0 -160 102 -160q70 0 172 60v-119q-123 -70 -223 -70q-101 0 -159 55t-58 197v625h-123v84q170 57 192 299z" />
    <glyph glyph-name="u" unicode="u" horiz-adv-x="1087" 
d="M16 963l306 20v-618q0 -150 49 -198t133 -48q126 0 195 80t69 227v362q0 61 -19.5 72.5t-121.5 9.5v93l301 20v-770q0 -55 8 -74.5t45 -19.5h82v-88l-277 -31q-18 76 -18 150h-4q-92 -175 -301 -175q-309 0 -309 353v460q0 61 -19 72.5t-119 9.5v93z" />
    <glyph glyph-name="v" unicode="v" horiz-adv-x="1044" 
d="M6 877v94h420v-94q-67 0 -88 -5.5t-21 -29.5q0 -18 13 -49l223 -574l215 567q10 24 10 50q0 24 -16 31.5t-88 9.5v94h364v-94q-66 0 -85 -16t-60 -120l-303 -759h-117l-315 782q-27 67 -52.5 88.5t-99.5 24.5z" />
    <glyph glyph-name="w" unicode="w" horiz-adv-x="1516" 
d="M4 971h418v-94h-37q-72 0 -72 -41q0 -11 21 -78l164 -537h4l215 750h131l229 -750h4l156 545q12 40 12 61q0 50 -69 50h-35v94h364v-94q-66 0 -89 -18t-50 -101l-252 -776h-123l-231 739h-4l-219 -739h-119l-252 739q-37 105 -66.5 130.5t-99.5 25.5v94z" />
    <glyph glyph-name="x" unicode="x" horiz-adv-x="1044" 
d="M53 971h412v-94h-43q-49 0 -49 -27q0 -17 39 -72l127 -178l147 188q8 9 12 15q25 37 25 47q0 27 -84 27v94h360v-94q-51 1 -86.5 -17.5t-87.5 -81.5l-221 -270l212 -290q50 -71 92 -98.5t104 -27.5v-92h-408v92h35q53 0 53 27q0 11 -39 65l-145 203l-170 -211
q0 -2 -17.5 -19.5t-17.5 -37.5q0 -27 53 -27h29v-92h-352v92q62 2 97 26t79 79l231 284l-198 277q-50 67 -87.5 92.5t-101.5 26.5v94z" />
    <glyph glyph-name="y" unicode="y" horiz-adv-x="1044" 
d="M6 971h420v-94h-49q-60 0 -60 -37q0 -16 15 -54l219 -581l199 532q24 74 24 99q0 41 -65 41h-37v94h366v-94q-65 0 -85.5 -15.5t-49.5 -89.5l-360 -922q-71 -183 -140.5 -244t-181.5 -61q-87 0 -166 37v193h115v-33q0 -86 70 -86q53 0 86.5 43.5t75.5 143.5t57 157
l-289 737q-38 97 -66 118.5t-98 21.5v94z" />
    <glyph glyph-name="z" unicode="z" horiz-adv-x="897" 
d="M70 700v271h759v-115l-585 -741h385q62 0 76 11t14 62v101h129v-289h-799v115l586 741h-359q-52 0 -64.5 -10t-12.5 -62v-84h-129z" />
    <glyph glyph-name="braceleft" unicode="{" 
d="M569 1405h54v-150h-29q-99 0 -131.5 -36t-32.5 -162q0 -208 -9.5 -301.5t-51 -157.5t-140.5 -111q101 -41 151 -130.5t50 -299.5q0 -202 9 -246.5t33 -68t122 -23.5h29v-149h-54q-78 0 -135 14.5t-100 71t-53.5 132t-11.5 225t-11 222.5t-53 122.5t-135 52.5v155
q94 3 137 54t51.5 119.5t10 227t12.5 229.5t55 126.5t100 69.5t133 14z" />
    <glyph glyph-name="bar" unicode="|" horiz-adv-x="1110" 
d="M475 1405h160v-1894h-160v1894z" />
    <glyph glyph-name="braceright" unicode="}" 
d="M113 -430h-54v149h29q99 0 131.5 36.5t32.5 162.5q0 208 9.5 301.5t51 157.5t140.5 110q-101 41 -151 131t-50 300q0 202 -9 246.5t-33 67.5t-122 23h-29v150h54q78 0 135 -14.5t100 -71t53.5 -132t11.5 -225.5t11 -222.5t53 -122t135 -52.5v-155q-94 -3 -137 -54
t-51.5 -119.5t-10 -227t-12.5 -230t-55 -127t-100 -69t-133 -13.5z" />
    <glyph glyph-name="asciitilde" unicode="~" horiz-adv-x="1343" 
d="M127 582v168q156 129 303 129q57 0 116.5 -20t174.5 -75q131 -65 205 -65q134 0 291 143v-170q-155 -131 -291 -131q-66 0 -128 21t-185.5 81t-190.5 60q-134 0 -295 -141z" />
    <glyph glyph-name="Adieresis" unicode="&#xc4;" horiz-adv-x="1386" 
d="M610 1423h168l418 -1190q31 -90 56.5 -111.5t76.5 -21.5h39v-100h-461v100h54q45 0 63 7.5t18 39.5q0 22 -22 86l-76 218h-538l-80 -226q-4 -8 -11.5 -34t-7.5 -39q0 -24 16.5 -38t67.5 -14h58v-100h-431v100h37q58 0 82 26t45 85zM672 1210l-223 -637h450l-223 637h-4z
M412 1608q0 38 26.5 64t64.5 26q36 0 63 -26t27 -64q0 -37 -27 -63.5t-63 -26.5q-38 0 -64.5 26t-26.5 64zM795 1608q0 38 26.5 64t63.5 26t64 -26t27 -64q0 -37 -27 -63.5t-64 -26.5t-63.5 26t-26.5 64z" />
    <glyph glyph-name="Aring" unicode="&#xc5;" horiz-adv-x="1386" 
d="M610 1423h168l418 -1190q31 -90 56.5 -111.5t76.5 -21.5h39v-100h-461v100h54q45 0 63 7.5t18 39.5q0 22 -22 86l-76 218h-538l-80 -226q-4 -8 -11.5 -34t-7.5 -39q0 -24 16.5 -38t67.5 -14h58v-100h-431v100h37q58 0 82 26t45 85zM672 1210l-223 -637h450l-223 637h-4z
M508 1702q0 76 54.5 130.5t131.5 54.5q75 0 129.5 -54.5t54.5 -130.5t-54.5 -130t-129.5 -54q-77 0 -131.5 54t-54.5 130zM803 1702q0 46 -32.5 78.5t-78.5 32.5q-45 0 -78 -32.5t-33 -78.5t32.5 -78t78.5 -32t78.5 32t32.5 78z" />
    <glyph glyph-name="Ccedilla" unicode="&#xc7;" horiz-adv-x="1366" 
d="M776 -37l-12 -43q158 -15 158 -145q0 -75 -58.5 -123.5t-161.5 -48.5q-97 0 -188 41v100q106 -43 166 -43q47 0 77.5 19t30.5 55q0 38 -32 55.5t-125 13.5l35 125q-284 49 -422 248t-138 475q0 323 188 536.5t501 213.5q265 0 465 -115v-317h-148q-3 153 -20.5 193.5
t-107.5 75t-198 34.5q-225 0 -359 -164.5t-134 -441.5q0 -280 144 -437t347 -157q117 0 244 43.5t232 134.5v-172q-171 -139 -484 -156z" />
    <glyph glyph-name="Eacute" unicode="&#xc9;" horiz-adv-x="1237" 
d="M98 1405h1028v-315h-131v102q0 60 -21 73t-106 13h-456v-494h360q64 0 80 17t16 73v48h117v-404h-117v64q0 52 -21 66t-85 14h-350v-537h518q61 0 75.5 20t14.5 78v88h129v-311h-1051v100h49q61 0 75 20t14 79v1015q0 51 -15.5 70t-73.5 19h-49v102zM625 1518h-113
l134 264h198z" />
    <glyph glyph-name="Ntilde" unicode="&#xd1;" horiz-adv-x="1473" 
d="M92 1405h404l634 -1139h5v932q0 66 -15.5 85.5t-89.5 19.5h-35v102h418v-102h-45q-66 0 -80 -20t-14 -85v-1216h-182l-717 1286h-4v-1063q0 -65 14.5 -85t81.5 -20h41v-100h-416v100h49q62 0 75 21t13 94v997q0 55 -14.5 73t-79.5 18h-43v102zM932 1711h110
q-2 -90 -53 -142.5t-117 -52.5q-58 0 -143 39l-68 31q-30 12 -49 12q-57 0 -70 -80h-112q17 193 188 193q60 0 123.5 -33.5t80.5 -40t38 -6.5q62 0 72 80z" />
    <glyph glyph-name="Odieresis" unicode="&#xd6;" horiz-adv-x="1556" 
d="M770 -37q-295 0 -480.5 198.5t-185.5 524.5q0 344 187.5 550t490.5 206q313 0 491.5 -204.5t178.5 -528.5q0 -331 -190 -538.5t-492 -207.5zM780 1307q-238 0 -361.5 -163.5t-123.5 -443.5q0 -308 135.5 -455t349.5 -147q224 0 352 165t128 460q0 281 -130 432.5
t-350 151.5zM498 1608q0 38 26.5 64t64.5 26q36 0 63 -26t27 -64q0 -37 -27 -63.5t-63 -26.5q-38 0 -64.5 26t-26.5 64zM881 1608q0 38 26.5 64t63.5 26t64 -26t27 -64q0 -37 -27 -63.5t-64 -26.5t-63.5 26t-26.5 64z" />
    <glyph glyph-name="Udieresis" unicode="&#xdc;" horiz-adv-x="1473" 
d="M61 1405h459v-102h-49q-64 0 -77 -20.5t-13 -94.5v-684q0 -225 97 -316.5t274 -91.5q175 0 272.5 88.5t97.5 298.5v705q0 75 -13.5 95t-78.5 20h-45v102h426v-102h-51q-59 0 -71.5 -19t-12.5 -82v-708q0 -531 -531 -531q-544 0 -544 520v719q0 60 -16.5 80.5t-86.5 20.5
h-37v102zM455 1608q0 38 26.5 64t64.5 26q36 0 63 -26t27 -64q0 -37 -27 -63.5t-63 -26.5q-38 0 -64.5 26t-26.5 64zM838 1608q0 38 26.5 64t63.5 26t64 -26t27 -64q0 -37 -27 -63.5t-64 -26.5t-63.5 26t-26.5 64z" />
    <glyph glyph-name="aacute" unicode="&#xe1;" horiz-adv-x="1004" 
d="M162 688v205q155 106 342 106q62 0 128 -15t121.5 -60t71 -111t15.5 -180v-402q0 -67 9.5 -99t41.5 -32q38 0 88 29v-100q-97 -54 -172 -54q-110 0 -127 154q-118 -154 -297 -154q-132 0 -216.5 70t-84.5 207q0 152 110.5 232.5t487.5 164.5q0 150 -52 198t-141 48
q-196 0 -196 -164v-43h-129zM680 399v144q-283 -69 -358.5 -123t-75.5 -150q0 -77 49.5 -122.5t122.5 -45.5q87 0 174.5 58.5t87.5 238.5zM508 1110h-113l134 264h198z" />
    <glyph glyph-name="agrave" unicode="&#xe0;" horiz-adv-x="1004" 
d="M162 688v205q155 106 342 106q62 0 128 -15t121.5 -60t71 -111t15.5 -180v-402q0 -67 9.5 -99t41.5 -32q38 0 88 29v-100q-97 -54 -172 -54q-110 0 -127 154q-118 -154 -297 -154q-132 0 -216.5 70t-84.5 207q0 152 110.5 232.5t487.5 164.5q0 150 -52 198t-141 48
q-196 0 -196 -164v-43h-129zM680 399v144q-283 -69 -358.5 -123t-75.5 -150q0 -77 49.5 -122.5t122.5 -45.5q87 0 174.5 58.5t87.5 238.5zM611 1110h-113l-219 264h198z" />
    <glyph glyph-name="acircumflex" unicode="&#xe2;" horiz-adv-x="1004" 
d="M162 688v205q155 106 342 106q62 0 128 -15t121.5 -60t71 -111t15.5 -180v-402q0 -67 9.5 -99t41.5 -32q38 0 88 29v-100q-97 -54 -172 -54q-110 0 -127 154q-118 -154 -297 -154q-132 0 -216.5 70t-84.5 207q0 152 110.5 232.5t487.5 164.5q0 150 -52 198t-141 48
q-196 0 -196 -164v-43h-129zM680 399v144q-283 -69 -358.5 -123t-75.5 -150q0 -77 49.5 -122.5t122.5 -45.5q87 0 174.5 58.5t87.5 238.5zM363 1110h-138l197 264h164l194 -264h-143l-137 180z" />
    <glyph glyph-name="adieresis" unicode="&#xe4;" horiz-adv-x="1004" 
d="M162 688v205q155 106 342 106q62 0 128 -15t121.5 -60t71 -111t15.5 -180v-402q0 -67 9.5 -99t41.5 -32q38 0 88 29v-100q-97 -54 -172 -54q-110 0 -127 154q-118 -154 -297 -154q-132 0 -216.5 70t-84.5 207q0 152 110.5 232.5t487.5 164.5q0 150 -52 198t-141 48
q-196 0 -196 -164v-43h-129zM680 399v144q-283 -69 -358.5 -123t-75.5 -150q0 -77 49.5 -122.5t122.5 -45.5q87 0 174.5 58.5t87.5 238.5zM221 1200q0 38 26.5 64t64.5 26q36 0 63 -26t27 -64q0 -37 -27 -63.5t-63 -26.5q-38 0 -64.5 26t-26.5 64zM604 1200q0 38 26.5 64
t63.5 26t64 -26t27 -64q0 -37 -27 -63.5t-64 -26.5t-63.5 26t-26.5 64z" />
    <glyph glyph-name="atilde" unicode="&#xe3;" horiz-adv-x="1004" 
d="M162 688v205q155 106 342 106q62 0 128 -15t121.5 -60t71 -111t15.5 -180v-402q0 -67 9.5 -99t41.5 -32q38 0 88 29v-100q-97 -54 -172 -54q-110 0 -127 154q-118 -154 -297 -154q-132 0 -216.5 70t-84.5 207q0 152 110.5 232.5t487.5 164.5q0 150 -52 198t-141 48
q-196 0 -196 -164v-43h-129zM680 399v144q-283 -69 -358.5 -123t-75.5 -150q0 -77 49.5 -122.5t122.5 -45.5q87 0 174.5 58.5t87.5 238.5zM699 1303h110q-2 -90 -53 -142.5t-117 -52.5q-58 0 -143 39l-68 31q-30 12 -49 12q-57 0 -70 -80h-112q17 193 188 193
q60 0 123.5 -33.5t80.5 -40t38 -6.5q62 0 72 80z" />
    <glyph glyph-name="aring" unicode="&#xe5;" horiz-adv-x="1004" 
d="M162 688v205q155 106 342 106q62 0 128 -15t121.5 -60t71 -111t15.5 -180v-402q0 -67 9.5 -99t41.5 -32q38 0 88 29v-100q-97 -54 -172 -54q-110 0 -127 154q-118 -154 -297 -154q-132 0 -216.5 70t-84.5 207q0 152 110.5 232.5t487.5 164.5q0 150 -52 198t-141 48
q-196 0 -196 -164v-43h-129zM680 399v144q-283 -69 -358.5 -123t-75.5 -150q0 -77 49.5 -122.5t122.5 -45.5q87 0 174.5 58.5t87.5 238.5zM317 1294q0 76 54.5 130.5t131.5 54.5q75 0 129.5 -54.5t54.5 -130.5t-54.5 -130t-129.5 -54q-77 0 -131.5 54t-54.5 130zM612 1294
q0 46 -32.5 78.5t-78.5 32.5q-45 0 -78 -32.5t-33 -78.5t32.5 -78t78.5 -32t78.5 32t32.5 78z" />
    <glyph glyph-name="ccedilla" unicode="&#xe7;" horiz-adv-x="981" 
d="M567 -29l-14 -51q160 -15 160 -145q0 -75 -59 -123.5t-162 -48.5q-97 0 -189 41v100q107 -43 168 -43q46 0 76.5 19t30.5 55q0 38 -32.5 55.5t-125.5 13.5l39 131q-182 31 -272.5 167t-90.5 327q0 248 137 386t340 138q161 0 312 -82v-284h-137v88q0 93 -47 129.5
t-136 36.5q-136 0 -217.5 -104t-81.5 -285q0 -191 84.5 -285t208.5 -94q157 0 326 135v-150q-142 -117 -318 -127z" />
    <glyph glyph-name="eacute" unicode="&#xe9;" horiz-adv-x="1004" 
d="M930 500h-670q2 -191 81 -291t226 -100q169 0 340 153v-149q-158 -144 -370 -144t-330.5 139.5t-118.5 360.5q0 237 124 383.5t325 146.5q163 0 278 -108.5t115 -390.5zM270 612h492q-21 277 -236 277q-99 0 -167 -69.5t-89 -207.5zM508 1110h-113l134 264h198z" />
    <glyph glyph-name="egrave" unicode="&#xe8;" horiz-adv-x="1004" 
d="M930 500h-670q2 -191 81 -291t226 -100q169 0 340 153v-149q-158 -144 -370 -144t-330.5 139.5t-118.5 360.5q0 237 124 383.5t325 146.5q163 0 278 -108.5t115 -390.5zM270 612h492q-21 277 -236 277q-99 0 -167 -69.5t-89 -207.5zM611 1110h-113l-219 264h198z" />
    <glyph glyph-name="ecircumflex" unicode="&#xea;" horiz-adv-x="1004" 
d="M930 500h-670q2 -191 81 -291t226 -100q169 0 340 153v-149q-158 -144 -370 -144t-330.5 139.5t-118.5 360.5q0 237 124 383.5t325 146.5q163 0 278 -108.5t115 -390.5zM270 612h492q-21 277 -236 277q-99 0 -167 -69.5t-89 -207.5zM363 1110h-138l197 264h164l194 -264
h-143l-137 180z" />
    <glyph glyph-name="edieresis" unicode="&#xeb;" horiz-adv-x="1004" 
d="M930 500h-670q2 -191 81 -291t226 -100q169 0 340 153v-149q-158 -144 -370 -144t-330.5 139.5t-118.5 360.5q0 237 124 383.5t325 146.5q163 0 278 -108.5t115 -390.5zM270 612h492q-21 277 -236 277q-99 0 -167 -69.5t-89 -207.5zM221 1200q0 38 26.5 64t64.5 26
q36 0 63 -26t27 -64q0 -37 -27 -63.5t-63 -26.5q-38 0 -64.5 26t-26.5 64zM604 1200q0 38 26.5 64t63.5 26t64 -26t27 -64q0 -37 -27 -63.5t-64 -26.5t-63.5 26t-26.5 64z" />
    <glyph glyph-name="iacute" unicode="&#xed;" horiz-adv-x="512" 
d="M39 956l299 27v-799q0 -62 9.5 -77t58.5 -15h47v-92h-396v92h47q48 0 61 16t13 85v563q0 74 -13.5 90t-74.5 16h-51v94zM263 1110h-113l134 264h198z" />
    <glyph glyph-name="igrave" unicode="&#xec;" horiz-adv-x="512" 
d="M39 956l299 27v-799q0 -62 9.5 -77t58.5 -15h47v-92h-396v92h47q48 0 61 16t13 85v563q0 74 -13.5 90t-74.5 16h-51v94zM365 1110h-113l-219 264h198z" />
    <glyph glyph-name="icircumflex" unicode="&#xee;" horiz-adv-x="512" 
d="M39 956l299 27v-799q0 -62 9.5 -77t58.5 -15h47v-92h-396v92h47q48 0 61 16t13 85v563q0 74 -13.5 90t-74.5 16h-51v94zM118 1110h-138l197 264h164l194 -264h-143l-137 180z" />
    <glyph glyph-name="idieresis" unicode="&#xef;" horiz-adv-x="512" 
d="M39 956l299 27v-799q0 -62 9.5 -77t58.5 -15h47v-92h-396v92h47q48 0 61 16t13 85v563q0 74 -13.5 90t-74.5 16h-51v94zM-25 1200q0 38 26.5 64t64.5 26q36 0 63 -26t27 -64q0 -37 -27 -63.5t-63 -26.5q-38 0 -64.5 26t-26.5 64zM358 1200q0 38 26.5 64t63.5 26t64 -26
t27 -64q0 -37 -27 -63.5t-64 -26.5t-63.5 26t-26.5 64z" />
    <glyph glyph-name="ntilde" unicode="&#xf1;" horiz-adv-x="1110" 
d="M39 946l278 27q9 -20 19 -142q101 162 305 162q146 0 227.5 -81.5t81.5 -278.5v-463q0 -53 10.5 -65.5t65.5 -12.5h39v-92h-397v92h32q72 0 77 21.5t5 87.5v417q0 138 -50 190t-140 52q-112 0 -184 -76.5t-72 -253.5v-346q0 -64 12 -78t66 -14h41v-92h-396v92h39
q55 0 66.5 18.5t11.5 79.5v568q0 62 -8 80t-47 18q-47 0 -82 -2v92zM752 1303h110q-2 -90 -53 -142.5t-117 -52.5q-58 0 -143 39l-68 31q-30 12 -49 12q-57 0 -70 -80h-112q17 193 188 193q60 0 123.5 -33.5t80.5 -40t38 -6.5q62 0 72 80z" />
    <glyph glyph-name="oacute" unicode="&#xf3;" horiz-adv-x="1110" 
d="M569 993q212 0 333.5 -131t121.5 -364q0 -219 -125 -374t-358 -155q-221 0 -338 137.5t-117 360.5q0 229 128 377.5t355 148.5zM557 88q133 0 214 105t81 294q0 193 -79 290t-216 97q-141 0 -221 -108.5t-80 -288.5q0 -168 80 -278.5t221 -110.5zM562 1110h-113l134 264
h198z" />
    <glyph glyph-name="ograve" unicode="&#xf2;" horiz-adv-x="1110" 
d="M569 993q212 0 333.5 -131t121.5 -364q0 -219 -125 -374t-358 -155q-221 0 -338 137.5t-117 360.5q0 229 128 377.5t355 148.5zM557 88q133 0 214 105t81 294q0 193 -79 290t-216 97q-141 0 -221 -108.5t-80 -288.5q0 -168 80 -278.5t221 -110.5zM664 1110h-113l-219 264
h198z" />
    <glyph glyph-name="ocircumflex" unicode="&#xf4;" horiz-adv-x="1110" 
d="M569 993q212 0 333.5 -131t121.5 -364q0 -219 -125 -374t-358 -155q-221 0 -338 137.5t-117 360.5q0 229 128 377.5t355 148.5zM557 88q133 0 214 105t81 294q0 193 -79 290t-216 97q-141 0 -221 -108.5t-80 -288.5q0 -168 80 -278.5t221 -110.5zM417 1110h-138l197 264
h164l194 -264h-143l-137 180z" />
    <glyph glyph-name="odieresis" unicode="&#xf6;" horiz-adv-x="1110" 
d="M569 993q212 0 333.5 -131t121.5 -364q0 -219 -125 -374t-358 -155q-221 0 -338 137.5t-117 360.5q0 229 128 377.5t355 148.5zM557 88q133 0 214 105t81 294q0 193 -79 290t-216 97q-141 0 -221 -108.5t-80 -288.5q0 -168 80 -278.5t221 -110.5zM274 1200q0 38 26.5 64
t64.5 26q36 0 63 -26t27 -64q0 -37 -27 -63.5t-63 -26.5q-38 0 -64.5 26t-26.5 64zM657 1200q0 38 26.5 64t63.5 26t64 -26t27 -64q0 -37 -27 -63.5t-64 -26.5t-63.5 26t-26.5 64z" />
    <glyph glyph-name="otilde" unicode="&#xf5;" horiz-adv-x="1110" 
d="M569 993q212 0 333.5 -131t121.5 -364q0 -219 -125 -374t-358 -155q-221 0 -338 137.5t-117 360.5q0 229 128 377.5t355 148.5zM557 88q133 0 214 105t81 294q0 193 -79 290t-216 97q-141 0 -221 -108.5t-80 -288.5q0 -168 80 -278.5t221 -110.5zM752 1303h110
q-2 -90 -53 -142.5t-117 -52.5q-58 0 -143 39l-68 31q-30 12 -49 12q-57 0 -70 -80h-112q17 193 188 193q60 0 123.5 -33.5t80.5 -40t38 -6.5q62 0 72 80z" />
    <glyph glyph-name="uacute" unicode="&#xfa;" horiz-adv-x="1087" 
d="M16 963l306 20v-618q0 -150 49 -198t133 -48q126 0 195 80t69 227v362q0 61 -19.5 72.5t-121.5 9.5v93l301 20v-770q0 -55 8 -74.5t45 -19.5h82v-88l-277 -31q-18 76 -18 150h-4q-92 -175 -301 -175q-309 0 -309 353v460q0 61 -19 72.5t-119 9.5v93zM549 1110h-113
l134 264h198z" />
    <glyph glyph-name="ugrave" unicode="&#xf9;" horiz-adv-x="1087" 
d="M16 963l306 20v-618q0 -150 49 -198t133 -48q126 0 195 80t69 227v362q0 61 -19.5 72.5t-121.5 9.5v93l301 20v-770q0 -55 8 -74.5t45 -19.5h82v-88l-277 -31q-18 76 -18 150h-4q-92 -175 -301 -175q-309 0 -309 353v460q0 61 -19 72.5t-119 9.5v93zM651 1110h-113
l-219 264h198z" />
    <glyph glyph-name="ucircumflex" unicode="&#xfb;" horiz-adv-x="1087" 
d="M16 963l306 20v-618q0 -150 49 -198t133 -48q126 0 195 80t69 227v362q0 61 -19.5 72.5t-121.5 9.5v93l301 20v-770q0 -55 8 -74.5t45 -19.5h82v-88l-277 -31q-18 76 -18 150h-4q-92 -175 -301 -175q-309 0 -309 353v460q0 61 -19 72.5t-119 9.5v93zM404 1110h-138
l197 264h164l194 -264h-143l-137 180z" />
    <glyph glyph-name="udieresis" unicode="&#xfc;" horiz-adv-x="1087" 
d="M16 963l306 20v-618q0 -150 49 -198t133 -48q126 0 195 80t69 227v362q0 61 -19.5 72.5t-121.5 9.5v93l301 20v-770q0 -55 8 -74.5t45 -19.5h82v-88l-277 -31q-18 76 -18 150h-4q-92 -175 -301 -175q-309 0 -309 353v460q0 61 -19 72.5t-119 9.5v93zM262 1200
q0 38 26.5 64t64.5 26q36 0 63 -26t27 -64q0 -37 -27 -63.5t-63 -26.5q-38 0 -64.5 26t-26.5 64zM645 1200q0 38 26.5 64t63.5 26t64 -26t27 -64q0 -37 -27 -63.5t-64 -26.5t-63.5 26t-26.5 64z" />
    <glyph glyph-name="dagger" unicode="&#x2020;" horiz-adv-x="981" 
d="M66 928l354 -2l-10 413v103h165v-103l-14 -413l354 2v-150h-102l-252 4l14 -1132v-103h-165v103l10 1132l-252 -4h-102v150z" />
    <glyph glyph-name="degree" unicode="&#xb0;" horiz-adv-x="811" 
d="M84 1055q0 133 94.5 227t227.5 94q132 0 226.5 -94t94.5 -227t-94.5 -227.5t-226.5 -94.5q-133 0 -227.5 94.5t-94.5 227.5zM621 1055q0 88 -63.5 151.5t-151.5 63.5q-89 0 -152.5 -63.5t-63.5 -151.5q0 -89 63.5 -152t152.5 -63q88 0 151.5 63t63.5 152z" />
    <glyph glyph-name="cent" unicode="&#xa2;" horiz-adv-x="981" 
d="M889 1102v-287h-137v88q0 89 -38 123.5t-124 42.5v-768q136 7 299 137v-151q-130 -110 -299 -125v-238h-119v238q-187 28 -279 164.5t-92 330.5q0 202 93 335t278 179v246h119v-235q157 -3 299 -80zM471 317v736q-93 -33 -147 -131t-54 -242q0 -285 201 -363z" />
    <glyph glyph-name="sterling" unicode="&#xa3;" horiz-adv-x="1004" 
d="M913 1305v-269h-122q1 134 -47.5 183t-149.5 49q-102 0 -162.5 -63.5t-60.5 -149.5q0 -100 75 -318h361v-125h-328q17 -62 17 -137q0 -104 -42 -176t-118 -139l4 -4q56 22 117 22q52 0 155.5 -32.5t165.5 -32.5q74 0 168 59v-135q-92 -62 -186 -62q-68 0 -194.5 37
t-186.5 37q-88 0 -301 -78v133q260 134 260 381q0 53 -16 127h-168v125h131q-72 165 -72 293q0 146 107 246t286 100q163 0 307 -71z" />
    <glyph glyph-name="section" unicode="&#xa7;" horiz-adv-x="961" 
d="M780 1378v-256h-125v47q0 170 -151 170q-72 0 -117 -39t-45 -100q0 -79 43 -132.5t182 -169.5q213 -181 265.5 -272t52.5 -175q0 -105 -72 -200t-209 -155q101 -91 136.5 -155.5t35.5 -135.5q0 -107 -84.5 -182.5t-238.5 -75.5q-155 0 -275 54v254h127v-68
q0 -69 12.5 -91t48 -42.5t89.5 -20.5q80 0 121.5 41.5t41.5 102.5q0 69 -38 117.5t-182 176.5t-199 183.5t-89 122.5t-34 151q0 115 77.5 206t208.5 140q-107 105 -140.5 166.5t-33.5 128.5q0 119 91 193t231 74q120 0 270 -58zM440 801q-104 -44 -154 -111.5t-50 -142.5
q0 -60 33.5 -119t136.5 -153l116 -105q203 99 203 260q0 80 -50 149.5t-219 206.5q-15 12 -16 15z" />
    <glyph glyph-name="bullet" unicode="&#x2022;" horiz-adv-x="725" 
d="M111 676q0 104 74 178t177 74q104 0 177 -73.5t73 -178.5q0 -103 -73.5 -176.5t-176.5 -73.5t-177 73.5t-74 176.5z" />
    <glyph glyph-name="paragraph" unicode="&#xb6;" horiz-adv-x="1217" 
d="M461 -408v1045q-196 13 -301 126t-105 281q0 180 114.5 301t358.5 121h633v-163h-143v-1711h-170v1711h-223v-1711h-164z" />
    <glyph glyph-name="germandbls" unicode="&#xdf;" horiz-adv-x="1110" 
d="M322 0h-293v92h47q55 0 68.5 18.5t13.5 79.5v801q0 109 21 202.5t111.5 171t276.5 77.5q185 0 286 -94.5t101 -249.5q0 -227 -213 -314v-4q279 -49 279 -354q0 -199 -104 -319.5t-281 -120.5q-110 0 -191 41v194h109q0 -72 26 -95.5t70 -23.5q97 0 150 85.5t53 218.5
q0 137 -56 203.5t-125 82t-155 15.5v135q275 1 275 248q0 116 -65.5 175.5t-166.5 59.5q-112 0 -174.5 -74t-62.5 -266v-985z" />
    <glyph glyph-name="registered" unicode="&#xae;" horiz-adv-x="1622" 
d="M55 737q0 312 222.5 533t533.5 221t532.5 -221t221.5 -533q0 -311 -221.5 -533t-532.5 -222q-312 0 -534 221.5t-222 533.5zM1440 737q0 260 -185.5 444.5t-443.5 184.5t-443.5 -184.5t-185.5 -444.5t184.5 -445.5t444.5 -185.5t444.5 185.5t184.5 445.5zM479 319v811
h281q127 0 194.5 -18t109.5 -76.5t42 -124.5q0 -83 -59.5 -151t-172.5 -76v-4q73 -17 189 -203l98 -158h-160l-71 127q-76 137 -120 177.5t-122 40.5h-78v-345h-131zM610 1020v-244h160q110 0 153.5 32.5t43.5 90.5q0 57 -41.5 89t-165.5 32h-150z" />
    <glyph glyph-name="copyright" unicode="&#xa9;" horiz-adv-x="1622" 
d="M55 737q0 312 222.5 533t533.5 221t532.5 -221t221.5 -533q0 -311 -221.5 -533t-532.5 -222q-312 0 -534 221.5t-222 533.5zM1440 737q0 260 -185.5 444.5t-443.5 184.5t-443.5 -184.5t-185.5 -444.5t184.5 -445.5t444.5 -185.5t444.5 185.5t184.5 445.5zM1053 614
l123 -36q-33 -132 -133 -203.5t-230 -71.5q-178 0 -287.5 117t-109.5 315q0 196 108 310t295 114q127 0 217 -60t125 -175l-119 -29q-61 154 -227 154q-124 0 -193 -89.5t-69 -228.5q0 -146 69 -227.5t183 -81.5q82 0 152 46.5t96 145.5z" />
    <glyph glyph-name="trademark" unicode="&#x2122;" horiz-adv-x="2048" 
d="M489 590v694h-264v121h666v-121h-266v-694h-136zM983 590v815h201l202 -651h5l196 651h197v-815h-125v684h-4l-205 -684h-123l-215 694h-4v-694h-125z" />
    <glyph glyph-name="acute" unicode="&#xb4;" 
d="M346 1110h-113l134 264h198z" />
    <glyph glyph-name="dieresis" unicode="&#xa8;" 
d="M59 1200q0 38 26.5 64t64.5 26q36 0 63 -26t27 -64q0 -37 -27 -63.5t-63 -26.5q-38 0 -64.5 26t-26.5 64zM442 1200q0 38 26.5 64t63.5 26t64 -26t27 -64q0 -37 -27 -63.5t-64 -26.5t-63.5 26t-26.5 64z" />
    <glyph glyph-name="notequal" unicode="&#x2260;" horiz-adv-x="1124" 
d="M1106 279h-621l-184 -330l-100 57l151 273h-321v112h385l157 285h-542v112h606l186 336l101 -57l-156 -279h338v-112h-399l-160 -285h559v-112z" />
    <glyph glyph-name="AE" unicode="&#xc6;" horiz-adv-x="1942" 
d="M639 1405h1194v-318h-129v103q0 52 -18.5 69t-88.5 17h-477v-494h361q58 0 77 14t19 72v52h115v-404h-115v57q0 59 -18.5 72.5t-77.5 13.5h-361v-536h504q68 0 86.5 16.5t18.5 69.5v100h131v-309h-1055v100h49q65 0 81.5 19t16.5 71v261h-487l-135 -236q-3 -3 -17 -29
t-14 -45t11.5 -30t58.5 -11h55v-100h-426v100h29q52 0 77 15t60 75l573 1000q29 46 29 72q0 41 -68 41h-59v102zM948 1292l-413 -719h417v719h-4z" />
    <glyph glyph-name="Oslash" unicode="&#xd8;" horiz-adv-x="1556" 
d="M334 119l-164 -178l-96 86l172 186q-142 197 -142 483q0 329 186.5 537.5t487.5 208.5q270 0 451 -158l164 178l94 -88l-172 -188q137 -200 137 -475q0 -335 -190 -541.5t-490 -206.5q-257 0 -438 156zM365 344l755 823q-131 140 -340 140q-227 0 -355 -159t-128 -439
q0 -236 68 -365zM1196 1057l-756 -821q137 -138 331 -138q232 0 360.5 164.5t128.5 458.5q0 199 -64 336z" />
    <glyph glyph-name="infinity" unicode="&#x221e;" horiz-adv-x="1460" 
d="M653 668q71 169 159 222.5t212 53.5q161 0 272 -116.5t111 -301.5q0 -186 -111.5 -303t-238.5 -117q-95 0 -170.5 63t-165.5 224q-117 -233 -324 -233q-149 0 -246.5 104.5t-97.5 263.5q0 157 89 262t218 105q80 0 149 -42t144 -185zM750 465q64 -138 134.5 -201
t176.5 -63q126 0 207.5 91t81.5 234q0 140 -84 240t-199 100q-55 0 -97.5 -21.5t-74.5 -62t-64 -116.5zM614 557l11 33q-96 215 -267 215q-110 0 -179.5 -76.5t-69.5 -198.5q0 -123 66.5 -207.5t162.5 -84.5q82 0 149.5 65t126.5 254z" />
    <glyph glyph-name="plusminus" unicode="&#xb1;" horiz-adv-x="1366" 
d="M135 915h467v471h158v-471h471v-157h-471v-467h-158v467h-467v157zM135 158h1096v-158h-1096v158z" />
    <glyph glyph-name="lessequal" unicode="&#x2264;" horiz-adv-x="1124" 
d="M1077 240l-1018 471v127l1018 471v-127l-887 -408l887 -407v-127zM1077 0h-1018v112h1018v-112z" />
    <glyph glyph-name="greaterequal" unicode="&#x2265;" horiz-adv-x="1124" 
d="M1077 711l-1018 -471v127l887 407l-887 408v127l1018 -471v-127zM1077 0h-1018v112h1018v-112z" />
    <glyph glyph-name="yen" unicode="&#xa5;" horiz-adv-x="1290" 
d="M727 442h420v-108h-420v-139q0 -64 14.5 -80.5t87.5 -16.5h39v-98h-452v98h47q65 0 79.5 19.5t14.5 77.5v139h-422v108h422v90l-63 105h-359v111h291l-240 399q-34 58 -62.5 81t-80.5 23h-29v99h449v-99h-39q-70 0 -70 -34q0 -15 33 -70l279 -467l282 446q41 67 41 88
q0 18 -12.5 27.5t-63.5 9.5h-55v99h418v-99q-67 0 -93 -15t-65 -77l-260 -411h289v-111h-359l-61 -96v-99z" />
    <glyph glyph-name="uni00B5" unicode="&#xb5;" horiz-adv-x="1087" 
d="M961 971v-971h-144v125h-4q-83 -150 -262 -150q-163 0 -250 131h-4v-536h-168v1401h168v-359q0 -193 13.5 -274t76.5 -141t156 -60q48 0 98.5 20t89.5 65.5t54.5 110.5t15.5 277v361h160z" />
    <glyph glyph-name="partialdiff" unicode="&#x2202;" horiz-adv-x="1012" 
d="M295 1120h-45q131 303 379 303q161 0 263.5 -127t102.5 -376q0 -358 -164.5 -654.5t-427.5 -296.5q-155 0 -246 91t-91 245q0 239 166.5 420.5t383.5 181.5q222 0 312 -190h4q10 144 10 186q0 175 -92.5 276t-253.5 101q-194 0 -301 -160zM911 629q-81 225 -284 225
q-178 0 -286 -190.5t-108 -399.5q0 -108 54 -172.5t143 -64.5q136 0 279.5 162.5t201.5 439.5z" />
    <glyph glyph-name="summation" unicode="&#x2211;" horiz-adv-x="1460" 
d="M1423 238q-32 -125 -54 -240t-34 -219q-63 11 -102.5 16.5t-54.5 5.5h-1031q-20 0 -59 -3t-59 -3l714 815l-710 930q70 -7 123 -10.5t90 -3.5h1018l12 -326h-41q-31 102 -52.5 141t-81.5 66q-30 13 -74.5 20t-104.5 7h-539l559 -734l-602 -694h760q127 0 177.5 52
t98.5 180h47z" />
    <glyph glyph-name="product" unicode="&#x220f;" horiz-adv-x="1686" 
d="M1645 -207h-629v47q120 0 159.5 41t39.5 125v1419h-734v-1419q0 -84 39.5 -125t159.5 -41v-47h-629v47q122 0 160.5 41t38.5 125v1282q0 101 -48.5 152t-146.5 51v47h1586v-47q-98 0 -146.5 -51t-48.5 -152v-1282q0 -84 38.5 -125t160.5 -41v-47z" />
    <glyph glyph-name="pi" unicode="&#x3c0;" horiz-adv-x="1124" 
d="M1085 309q-5 -155 -75.5 -248.5t-167.5 -93.5q-79 0 -138.5 91.5t-59.5 281.5q0 42 2 80t5 72l35 329h-231q-60 -624 -98.5 -742.5t-130.5 -118.5q-39 0 -74 31t-35 82q0 46 72.5 128.5t80.5 150.5l60 469h-97q-40 0 -78.5 -19.5t-56.5 -45.5l-43 -64h-35
q49 152 120.5 228.5t164.5 76.5h764v-176h-258q-12 -120 -18.5 -240t-6.5 -241q0 -82 38 -133t95 -51q35 0 73.5 28.5t43.5 74.5q3 22 4.5 34.5t1.5 15.5h43z" />
    <glyph glyph-name="integral" unicode="&#x222b;" horiz-adv-x="561" 
d="M602 1760q0 -39 -29.5 -64t-75.5 -25q-37 0 -60 25t-44 25q-18 0 -27.5 -14.5t-9.5 -43.5q0 -34 19.5 -256t19.5 -551q0 -505 -30 -709.5t-79 -282.5q-26 -41 -67.5 -62t-85.5 -21q-49 0 -86 35t-37 85q0 38 25.5 65t64.5 27q34 0 65.5 -33t44.5 -33q25 0 39.5 44.5
t14.5 153.5q0 37 -6 197t-6 562q0 481 17 638.5t41 215.5q29 70 69 104t84 34q57 0 98 -32.5t41 -83.5z" />
    <glyph glyph-name="ordfeminine" unicode="&#xaa;" horiz-adv-x="705" 
d="M123 1245v129q104 68 231 68q78 0 135.5 -27t75 -71t17.5 -123v-240q0 -46 2 -58t20 -12q22 0 66 25v-76q-72 -35 -119 -35q-76 0 -92 74q-74 -74 -185 -74q-86 0 -144 43t-58 127q0 97 83.5 146t299.5 92q0 80 -30.5 107.5t-84.5 27.5q-111 0 -111 -90v-33h-106z
M455 1081v74q-154 -35 -204 -64.5t-50 -84.5q0 -44 28 -68.5t70 -24.5q76 0 116 44.5t40 123.5z" />
    <glyph glyph-name="ordmasculine" unicode="&#xba;" horiz-adv-x="768" 
d="M393 1442q139 0 221 -81t82 -222q0 -132 -83.5 -225t-237.5 -93q-147 0 -225 83.5t-78 217.5q0 139 85 229.5t236 90.5zM385 905q82 0 130 59.5t48 170.5q0 103 -45.5 163t-132.5 60q-85 0 -132.5 -64.5t-47.5 -167.5q0 -95 47 -158t133 -63z" />
    <glyph glyph-name="uni2126" unicode="&#x2126;" horiz-adv-x="1573" 
d="M1506 0h-604l33 311q161 59 226 200t65 313q0 227 -107 373t-331 146t-331 -146t-107 -373q0 -172 65 -313t226 -200l33 -311h-604v332h30q16 -66 40 -95.5t96 -29.5h323l-4 57q-238 65 -341 221t-103 332q0 259 192 425.5t485 166.5t485 -166.5t192 -425.5
q0 -176 -103 -332t-341 -221l-4 -57h323q72 0 96 29.5t40 95.5h30v-332z" />
    <glyph glyph-name="ae" unicode="&#xe6;" horiz-adv-x="1556" 
d="M1489 500h-668q0 -197 83 -295.5t214 -98.5q167 0 350 154v-147q-164 -144 -374 -144q-241 0 -355 195q-119 -195 -340 -195q-156 0 -239.5 70.5t-83.5 202.5q0 110 58 188.5t179.5 117t137.5 42.5l225 57q0 148 -51.5 199t-141.5 51q-92 0 -145 -40t-53 -116v-53h-127
v207q155 104 348 104q220 0 282 -139q111 139 302 139q188 0 293.5 -116t105.5 -383zM831 612h490q-8 139 -71 207t-165 68q-206 0 -254 -275zM676 393v148l-172 -41q-2 -1 -8 -3q-35 -9 -145.5 -59.5t-110.5 -171.5q0 -80 49.5 -127t130.5 -47q124 0 190 77t66 224z" />
    <glyph glyph-name="oslash" unicode="&#xf8;" horiz-adv-x="1110" 
d="M248 63l-115 -124l-84 75l123 136q-86 125 -86 317q0 229 124.5 379t343.5 150q79 0 159 -17.5t149 -77.5l115 125l82 -76l-121 -131q86 -132 86 -317q0 -227 -126.5 -380t-356.5 -153q-182 0 -293 94zM291 279l471 512q-82 86 -207 86q-139 0 -219 -109.5t-80 -290.5
q0 -112 35 -198zM821 690l-471 -514q88 -88 209 -88q140 0 216.5 109t76.5 290q0 122 -31 203z" />
    <glyph glyph-name="questiondown" unicode="&#xbf;" horiz-adv-x="874" 
d="M604 889q0 -46 -33 -78.5t-77 -32.5q-46 0 -78.5 32.5t-32.5 78.5t32.5 78t78.5 32q44 0 77 -32.5t33 -77.5zM809 -94v-258q-166 -121 -356 -121q-186 0 -284.5 95t-98.5 241q0 98 40 170t143.5 198t137.5 211t39 195h131q2 -225 -130 -405l-99 -131q-44 -60 -69 -119
t-25 -127q0 -89 59.5 -150t165.5 -61q82 0 129.5 33t66.5 70t19 114v45h131z" />
    <glyph glyph-name="exclamdown" unicode="&#xa1;" horiz-adv-x="492" 
d="M356 889q0 -46 -32.5 -78.5t-77.5 -32.5q-46 0 -78.5 32.5t-32.5 78.5t32.5 78t78.5 32q45 0 77.5 -32.5t32.5 -77.5zM330 -442h-168v120l18 945h129l21 -945v-120z" />
    <glyph glyph-name="logicalnot" unicode="&#xac;" horiz-adv-x="1366" 
d="M135 985h1096v-631h-158v473h-938v158z" />
    <glyph glyph-name="radical" unicode="&#x221a;" horiz-adv-x="1124" 
d="M1055 1868l-307 -1946l-498 1028l-197 -96l-33 68l299 147l404 -825l260 1634z" />
    <glyph glyph-name="florin" unicode="&#x192;" horiz-adv-x="1067" 
d="M1073 1395l-51 -178h-96q0 4 3 26.5t3 26.5q0 30 -20 51.5t-60 21.5q-85 0 -137 -92.5t-76 -302.5h166l-23 -112h-153l-90 -740q-67 -545 -392 -545q-76 0 -147 35l27 168h98q-4 -15 -4 -41q0 -61 57 -61q78 0 124.5 107t82.5 423l74 654h-158l25 112h145q76 494 403 494
q99 0 199 -47z" />
    <glyph glyph-name="approxequal" unicode="&#x2248;" horiz-adv-x="1124" 
d="M1022 874h51q-21 -155 -95.5 -238t-186.5 -83q-97 0 -304 117q-139 78 -211 78q-149 0 -178 -187h-47q20 154 93.5 238t181.5 84q47 0 107 -19.5t224 -107.5q118 -62 193 -62q144 0 172 180zM1022 487h51q-21 -155 -95.5 -238t-186.5 -83q-96 0 -268.5 97t-246.5 97
q-149 0 -178 -186h-47q20 153 93.5 236.5t181.5 83.5q47 0 112 -21.5t219 -103.5q118 -62 193 -62q144 0 172 180z" />
    <glyph glyph-name="uni2206" unicode="&#x2206;" horiz-adv-x="1253" 
d="M668 1409l577 -1409h-1233zM594 1059l-447 -959h844z" />
    <glyph glyph-name="guillemotleft" unicode="&#xab;" horiz-adv-x="961" 
d="M743 874h154l-246 -387l246 -395h-154l-264 395zM328 874h153l-245 -387l245 -395h-153l-265 395z" />
    <glyph glyph-name="guillemotright" unicode="&#xbb;" horiz-adv-x="961" 
d="M217 92h-154l246 387l-246 395h154l264 -395zM633 92h-154l246 387l-246 395h154l264 -395z" />
    <glyph glyph-name="ellipsis" unicode="&#x2026;" horiz-adv-x="2048" 
d="M911 82q0 45 33.5 78t79.5 33q45 0 78 -33t33 -78q0 -46 -33 -79.5t-78 -33.5q-46 0 -79.5 33t-33.5 80zM1593 82q0 45 33.5 78t79.5 33q45 0 78 -33t33 -78q0 -46 -33.5 -79.5t-77.5 -33.5q-46 0 -79.5 33t-33.5 80zM229 82q0 45 33.5 78t79.5 33q45 0 78 -33t33 -78
q0 -46 -33 -79.5t-78 -33.5q-46 0 -79.5 33t-33.5 80z" />
    <glyph glyph-name="uni00A0" unicode="&#xa0;" horiz-adv-x="532" 
 />
    <glyph glyph-name="Agrave" unicode="&#xc0;" horiz-adv-x="1386" 
d="M610 1423h168l418 -1190q31 -90 56.5 -111.5t76.5 -21.5h39v-100h-461v100h54q45 0 63 7.5t18 39.5q0 22 -22 86l-76 218h-538l-80 -226q-4 -8 -11.5 -34t-7.5 -39q0 -24 16.5 -38t67.5 -14h58v-100h-431v100h37q58 0 82 26t45 85zM672 1210l-223 -637h450l-223 637h-4z
M801 1518h-113l-219 264h198z" />
    <glyph glyph-name="Atilde" unicode="&#xc3;" horiz-adv-x="1386" 
d="M610 1423h168l418 -1190q31 -90 56.5 -111.5t76.5 -21.5h39v-100h-461v100h54q45 0 63 7.5t18 39.5q0 22 -22 86l-76 218h-538l-80 -226q-4 -8 -11.5 -34t-7.5 -39q0 -24 16.5 -38t67.5 -14h58v-100h-431v100h37q58 0 82 26t45 85zM672 1210l-223 -637h450l-223 637h-4z
M889 1711h110q-2 -90 -53 -142.5t-117 -52.5q-58 0 -143 39l-68 31q-30 12 -49 12q-57 0 -70 -80h-112q17 193 188 193q60 0 123.5 -33.5t80.5 -40t38 -6.5q62 0 72 80z" />
    <glyph glyph-name="Otilde" unicode="&#xd5;" horiz-adv-x="1556" 
d="M770 -37q-295 0 -480.5 198.5t-185.5 524.5q0 344 187.5 550t490.5 206q313 0 491.5 -204.5t178.5 -528.5q0 -331 -190 -538.5t-492 -207.5zM780 1307q-238 0 -361.5 -163.5t-123.5 -443.5q0 -308 135.5 -455t349.5 -147q224 0 352 165t128 460q0 281 -130 432.5
t-350 151.5zM975 1711h110q-2 -90 -53 -142.5t-117 -52.5q-58 0 -143 39l-68 31q-30 12 -49 12q-57 0 -70 -80h-112q17 193 188 193q60 0 123.5 -33.5t80.5 -40t38 -6.5q62 0 72 80z" />
    <glyph glyph-name="OE" unicode="&#x152;" horiz-adv-x="2068" 
d="M1960 1405v-318h-131v103q0 44 -13 64t-65 20h-502v-492h353q70 0 87 16.5t17 69.5v52h115v-404h-115v64q0 55 -22 66t-82 11h-353v-534h494q66 0 88 9.5t24 53.5l3 27v96h129v-309h-846l-313 -11q-349 0 -536.5 189.5t-187.5 511.5q0 320 184.5 519.5t547.5 199.5
l213 -4h911zM1073 209v969q0 47 -10.5 68t-58 32.5t-156.5 11.5q-291 0 -423 -163t-132 -425q0 -250 131.5 -421.5t474.5 -171.5q84 0 121 10.5t45 30t8 59.5z" />
    <glyph glyph-name="oe" unicode="&#x153;" horiz-adv-x="1749" 
d="M1673 498h-669q-3 -190 79.5 -292t216.5 -102q186 0 349 154v-147q-167 -142 -371 -142q-243 0 -358 203q-131 -203 -373 -203q-216 0 -337.5 133.5t-121.5 366.5q0 246 135 388t346 142q257 0 367 -198q110 198 342 198q395 0 395 -501zM1012 608h491q-5 133 -67.5 205
t-163.5 72q-99 0 -170 -71t-90 -206zM555 881q-140 0 -217.5 -108t-77.5 -288q0 -198 85.5 -297.5t213.5 -99.5q134 0 215.5 106.5t81.5 297.5q0 188 -80.5 288.5t-220.5 100.5z" />
    <glyph glyph-name="endash" unicode="&#x2013;" horiz-adv-x="1024" 
d="M-12 578h1048v-132h-1048v132z" />
    <glyph glyph-name="emdash" unicode="&#x2014;" horiz-adv-x="2048" 
d="M-12 578h2072v-132h-2072v132z" />
    <glyph glyph-name="quotedblleft" unicode="&#x201c;" horiz-adv-x="854" 
d="M377 1442v-80q-132 -66 -144 -178q65 2 97 -34t32 -81q0 -44 -32 -76t-76 -32q-60 0 -96.5 49t-36.5 123q0 96 62 179.5t194 129.5zM735 1442v-80q-131 -66 -143 -178q64 2 96.5 -34t32.5 -81q0 -44 -32 -76t-77 -32q-60 0 -96.5 49t-36.5 123q0 96 62.5 179.5
t193.5 129.5z" />
    <glyph glyph-name="quotedblright" unicode="&#x201d;" horiz-adv-x="854" 
d="M477 961v79q132 66 144 179q-65 -3 -97 33t-32 81t32 77t76 32q60 0 96.5 -49.5t36.5 -122.5q0 -97 -62 -180.5t-194 -128.5zM119 961v79q131 66 143 179q-64 -3 -96.5 33t-32.5 81t32 77t77 32q60 0 96.5 -49.5t36.5 -122.5q0 -97 -62.5 -180.5t-193.5 -128.5z" />
    <glyph glyph-name="quoteleft" unicode="&#x2018;" horiz-adv-x="492" 
d="M373 1442v-80q-132 -66 -144 -178q65 2 97 -34t32 -81q0 -44 -32 -76t-76 -32q-60 0 -96.5 49t-36.5 123q0 96 62 179.5t194 129.5z" />
    <glyph glyph-name="quoteright" unicode="&#x2019;" horiz-adv-x="492" 
d="M119 961v79q131 66 143 179q-64 -3 -96.5 33t-32.5 81t32 77t77 32q60 0 96.5 -49.5t36.5 -122.5q0 -97 -62.5 -180.5t-193.5 -128.5z" />
    <glyph glyph-name="divide" unicode="&#xf7;" horiz-adv-x="1366" 
d="M680 983q-40 0 -69 29t-29 69t29 68.5t69 28.5t69 -28.5t29 -68.5t-29 -69t-69 -29zM135 745h1096v-157h-1096v157zM680 156q-40 0 -69 28.5t-29 69.5q0 39 29 67.5t69 28.5t69 -28.5t29 -67.5q0 -41 -29 -69.5t-69 -28.5z" />
    <glyph glyph-name="lozenge" unicode="&#x25ca;" horiz-adv-x="1012" 
d="M962 763l-397 -763h-122l-397 763l397 763h122zM839 763l-335 652l-335 -652l335 -652z" />
    <glyph glyph-name="ydieresis" unicode="&#xff;" horiz-adv-x="1044" 
d="M6 971h420v-94h-49q-60 0 -60 -37q0 -16 15 -54l219 -581l199 532q24 74 24 99q0 41 -65 41h-37v94h366v-94q-65 0 -85.5 -15.5t-49.5 -89.5l-360 -922q-71 -183 -140.5 -244t-181.5 -61q-87 0 -166 37v193h115v-33q0 -86 70 -86q53 0 86.5 43.5t75.5 143.5t57 157
l-289 737q-38 97 -66 118.5t-98 21.5v94zM242 1200q0 38 26.5 64t64.5 26q36 0 63 -26t27 -64q0 -37 -27 -63.5t-63 -26.5q-38 0 -64.5 26t-26.5 64zM625 1200q0 38 26.5 64t63.5 26t64 -26t27 -64q0 -37 -27 -63.5t-64 -26.5t-63.5 26t-26.5 64z" />
    <glyph glyph-name="Ydieresis" unicode="&#x178;" horiz-adv-x="1343" 
d="M14 1405h469v-102h-41q-73 0 -73 -37q0 -13 34 -72l289 -487l295 467q43 66 43 90q0 18 -13.5 28.5t-66.5 10.5h-57v102h436v-102q-59 0 -88 -9.5t-78 -87.5l-407 -643v-360q0 -68 15.5 -85.5t92.5 -17.5h39v-100h-469v100h49q67 0 82 20.5t15 82.5v350l-387 641
q-38 61 -67 85t-81 24h-31v102zM391 1608q0 38 26.5 64t64.5 26q36 0 63 -26t27 -64q0 -37 -27 -63.5t-63 -26.5q-38 0 -64.5 26t-26.5 64zM774 1608q0 38 26.5 64t63.5 26t64 -26t27 -64q0 -37 -27 -63.5t-64 -26.5t-63.5 26t-26.5 64z" />
    <glyph glyph-name="fraction" unicode="&#x2215;" horiz-adv-x="385" 
d="M573 1442h123l-884 -1479h-123z" />
    <glyph glyph-name="currency" unicode="&#xa4;" horiz-adv-x="1409" 
d="M971 1038l129 129l104 -106l-129 -129q86 -115 86 -266q0 -145 -86 -265l129 -127l-104 -106l-129 127q-123 -86 -264 -86q-151 0 -269 86l-127 -127l-106 106l127 127q-84 121 -84 267q0 142 84 266l-127 127l104 106l129 -129q126 86 267 86q136 0 266 -86zM705 358
q126 0 216.5 91.5t90.5 218.5q0 125 -90.5 216t-216.5 91q-127 0 -217.5 -91t-90.5 -216q0 -127 90.5 -218.5t217.5 -91.5z" />
    <glyph glyph-name="guilsinglleft" unicode="&#x2039;" horiz-adv-x="555" 
d="M330 874h153l-245 -387l245 -395h-153l-264 395z" />
    <glyph glyph-name="guilsinglright" unicode="&#x203a;" horiz-adv-x="555" 
d="M225 92h-153l245 387l-245 395h153l264 -395z" />
    <glyph glyph-name="fi" unicode="&#xfb01;" horiz-adv-x="1087" 
d="M874 1364v-203h-129v39q0 88 -47.5 114.5t-117.5 26.5q-238 0 -238 -321v-49h576v-799q0 -50 11 -65t54 -15h47v-92h-397v92h37q52 0 70 13.5t18 74.5v563q0 76 -13 93.5t-81 17.5h-322v-682q0 -56 10.5 -68t63.5 -12h51v-92h-422v92h47q55 0 68.5 16t13.5 85v661h-129
v117h129v37q0 232 108 333t302 101q170 0 290 -78z" />
    <glyph glyph-name="fl" unicode="&#xfb02;" horiz-adv-x="1130" 
d="M950 1442v-1266q0 -50 12.5 -67t63.5 -17h37v-92h-397v92h47q51 0 64.5 17t13.5 67v676h-443v-676q0 -56 12 -70t70 -14h43v-92h-422v92h49q52 0 66 19t14 51v690h-129v119h129v57q0 231 122.5 322.5t277.5 91.5q102 0 202 -37zM348 971h443v168q0 114 -54.5 157
t-146.5 43q-115 0 -178.5 -72t-63.5 -245v-51z" />
    <glyph glyph-name="daggerdbl" unicode="&#x2021;" horiz-adv-x="918" 
d="M377 1442h164v-84l-17 -383l240 8h84v-147h-84l-240 8l17 -309v-84l-17 -312l240 11h84v-148h-84l-240 8l17 -379v-84h-164v84l18 379l-241 -8h-84v148h84l241 -11l-18 312v84l18 309l-241 -8h-84v147h84l241 -8l-18 383v84z" />
    <glyph glyph-name="uni00B7" unicode="&#xb7;" horiz-adv-x="492" 
d="M135 705q0 45 33 77.5t78 32.5q46 0 78 -32.5t32 -77.5q0 -46 -32 -78.5t-78 -32.5q-45 0 -78 32.5t-33 78.5z" />
    <glyph glyph-name="uni00B7" unicode="&#x2219;" horiz-adv-x="492" 
d="M135 705q0 45 33 77.5t78 32.5q46 0 78 -32.5t32 -77.5q0 -46 -32 -78.5t-78 -32.5q-45 0 -78 32.5t-33 78.5z" />
    <glyph glyph-name="quotesinglbase" unicode="&#x201a;" horiz-adv-x="492" 
d="M119 -276v79q131 66 143 179q-64 -3 -96.5 33t-32.5 81t32 77t77 32q60 0 96.5 -49.5t36.5 -122.5q0 -97 -62.5 -180.5t-193.5 -128.5z" />
    <glyph glyph-name="quotedblbase" unicode="&#x201e;" horiz-adv-x="854" 
d="M477 -276v79q132 66 144 179q-65 -3 -97 33t-32 81t32 77t76 32q60 0 96.5 -49.5t36.5 -122.5q0 -97 -62 -180.5t-194 -128.5zM119 -276v79q131 66 143 179q-64 -3 -96.5 33t-32.5 81t32 77t77 32q60 0 96.5 -49.5t36.5 -122.5q0 -97 -62.5 -180.5t-193.5 -128.5z" />
    <glyph glyph-name="perthousand" unicode="&#x2030;" horiz-adv-x="2183" 
d="M1042 1442h121l-714 -1479h-121zM315 682q-268 0 -268 379q0 381 277 381q270 0 270 -371q0 -389 -279 -389zM322 1362q-146 0 -146 -303q0 -160 36.5 -228.5t106.5 -68.5q73 0 108.5 68t35.5 241q0 160 -37 225.5t-104 65.5zM1155 -37q-268 0 -268 379q0 381 276 381
q271 0 271 -371q0 -389 -279 -389zM1161 643q-145 0 -145 -303q0 -161 36 -230t107 -69q73 0 108.5 68.5t35.5 242.5q0 160 -37 225.5t-105 65.5zM1858 -37q-131 0 -200 88t-69 291q0 381 277 381q270 0 270 -371q0 -389 -278 -389zM1864 643q-146 0 -146 -303
q0 -161 36.5 -230t107.5 -69q72 0 107.5 68.5t35.5 242.5q0 160 -36.5 225.5t-104.5 65.5z" />
    <glyph glyph-name="Acircumflex" unicode="&#xc2;" horiz-adv-x="1386" 
d="M610 1423h168l418 -1190q31 -90 56.5 -111.5t76.5 -21.5h39v-100h-461v100h54q45 0 63 7.5t18 39.5q0 22 -22 86l-76 218h-538l-80 -226q-4 -8 -11.5 -34t-7.5 -39q0 -24 16.5 -38t67.5 -14h58v-100h-431v100h37q58 0 82 26t45 85zM672 1210l-223 -637h450l-223 637h-4z
M554 1518h-138l197 264h164l194 -264h-143l-137 180z" />
    <glyph glyph-name="Ecircumflex" unicode="&#xca;" horiz-adv-x="1237" 
d="M98 1405h1028v-315h-131v102q0 60 -21 73t-106 13h-456v-494h360q64 0 80 17t16 73v48h117v-404h-117v64q0 52 -21 66t-85 14h-350v-537h518q61 0 75.5 20t14.5 78v88h129v-311h-1051v100h49q61 0 75 20t14 79v1015q0 51 -15.5 70t-73.5 19h-49v102zM480 1518h-138
l197 264h164l194 -264h-143l-137 180z" />
    <glyph glyph-name="Aacute" unicode="&#xc1;" horiz-adv-x="1386" 
d="M610 1423h168l418 -1190q31 -90 56.5 -111.5t76.5 -21.5h39v-100h-461v100h54q45 0 63 7.5t18 39.5q0 22 -22 86l-76 218h-538l-80 -226q-4 -8 -11.5 -34t-7.5 -39q0 -24 16.5 -38t67.5 -14h58v-100h-431v100h37q58 0 82 26t45 85zM672 1210l-223 -637h450l-223 637h-4z
M699 1518h-113l134 264h198z" />
    <glyph glyph-name="Edieresis" unicode="&#xcb;" horiz-adv-x="1237" 
d="M98 1405h1028v-315h-131v102q0 60 -21 73t-106 13h-456v-494h360q64 0 80 17t16 73v48h117v-404h-117v64q0 52 -21 66t-85 14h-350v-537h518q61 0 75.5 20t14.5 78v88h129v-311h-1051v100h49q61 0 75 20t14 79v1015q0 51 -15.5 70t-73.5 19h-49v102zM338 1608
q0 38 26.5 64t64.5 26q36 0 63 -26t27 -64q0 -37 -27 -63.5t-63 -26.5q-38 0 -64.5 26t-26.5 64zM721 1608q0 38 26.5 64t63.5 26t64 -26t27 -64q0 -37 -27 -63.5t-64 -26.5t-63.5 26t-26.5 64z" />
    <glyph glyph-name="Egrave" unicode="&#xc8;" horiz-adv-x="1237" 
d="M98 1405h1028v-315h-131v102q0 60 -21 73t-106 13h-456v-494h360q64 0 80 17t16 73v48h117v-404h-117v64q0 52 -21 66t-85 14h-350v-537h518q61 0 75.5 20t14.5 78v88h129v-311h-1051v100h49q61 0 75 20t14 79v1015q0 51 -15.5 70t-73.5 19h-49v102zM727 1518h-113
l-219 264h198z" />
    <glyph glyph-name="Iacute" unicode="&#xcd;" 
d="M115 1405h452v-105h-35q-72 0 -87 -19.5t-15 -96.5v-963q0 -91 18 -106t84 -15h35v-100h-452v100h41q61 0 78.5 14t17.5 97v989q0 64 -14.5 82t-81.5 18h-41v105zM346 1518h-113l134 264h198z" />
    <glyph glyph-name="Icircumflex" unicode="&#xce;" 
d="M115 1405h452v-105h-35q-72 0 -87 -19.5t-15 -96.5v-963q0 -91 18 -106t84 -15h35v-100h-452v100h41q61 0 78.5 14t17.5 97v989q0 64 -14.5 82t-81.5 18h-41v105zM201 1518h-138l197 264h164l194 -264h-143l-137 180z" />
    <glyph glyph-name="Idieresis" unicode="&#xcf;" 
d="M115 1405h452v-105h-35q-72 0 -87 -19.5t-15 -96.5v-963q0 -91 18 -106t84 -15h35v-100h-452v100h41q61 0 78.5 14t17.5 97v989q0 64 -14.5 82t-81.5 18h-41v105zM59 1608q0 38 26.5 64t64.5 26q36 0 63 -26t27 -64q0 -37 -27 -63.5t-63 -26.5q-38 0 -64.5 26t-26.5 64z
M442 1608q0 38 26.5 64t63.5 26t64 -26t27 -64q0 -37 -27 -63.5t-64 -26.5t-63.5 26t-26.5 64z" />
    <glyph glyph-name="Igrave" unicode="&#xcc;" 
d="M115 1405h452v-105h-35q-72 0 -87 -19.5t-15 -96.5v-963q0 -91 18 -106t84 -15h35v-100h-452v100h41q61 0 78.5 14t17.5 97v989q0 64 -14.5 82t-81.5 18h-41v105zM449 1518h-113l-219 264h198z" />
    <glyph glyph-name="Oacute" unicode="&#xd3;" horiz-adv-x="1556" 
d="M770 -37q-295 0 -480.5 198.5t-185.5 524.5q0 344 187.5 550t490.5 206q313 0 491.5 -204.5t178.5 -528.5q0 -331 -190 -538.5t-492 -207.5zM780 1307q-238 0 -361.5 -163.5t-123.5 -443.5q0 -308 135.5 -455t349.5 -147q224 0 352 165t128 460q0 281 -130 432.5
t-350 151.5zM785 1518h-113l134 264h198z" />
    <glyph glyph-name="Ocircumflex" unicode="&#xd4;" horiz-adv-x="1556" 
d="M770 -37q-295 0 -480.5 198.5t-185.5 524.5q0 344 187.5 550t490.5 206q313 0 491.5 -204.5t178.5 -528.5q0 -331 -190 -538.5t-492 -207.5zM780 1307q-238 0 -361.5 -163.5t-123.5 -443.5q0 -308 135.5 -455t349.5 -147q224 0 352 165t128 460q0 281 -130 432.5
t-350 151.5zM640 1518h-138l197 264h164l194 -264h-143l-137 180z" />
    <glyph glyph-name="uniF000" horiz-adv-x="1618" 
d="M1123 1617q0 -64 -30 -140t-95 -141q-45 -45 -92 -66t-125 -25q2 152 79.5 263t256.5 152q4 -13 5 -23t1 -20zM1509 414q-19 -62 -50.5 -126t-75.5 -131q-66 -101 -132 -151t-132 -50q-52 0 -143.5 33t-154.5 33t-146.5 -34.5t-135.5 -34.5q-78 0 -155 66.5t-153 199.5
q-75 131 -113 260t-38 256q0 235 115.5 383t291.5 148q75 0 181.5 -31t141.5 -31q45 0 147 35t177 35q97 0 176 -40.5t150 -128.5q-111 -94 -147.5 -172.5t-36.5 -160.5q0 -127 71 -229t162 -129z" />
    <glyph glyph-name="Ograve" unicode="&#xd2;" horiz-adv-x="1556" 
d="M770 -37q-295 0 -480.5 198.5t-185.5 524.5q0 344 187.5 550t490.5 206q313 0 491.5 -204.5t178.5 -528.5q0 -331 -190 -538.5t-492 -207.5zM780 1307q-238 0 -361.5 -163.5t-123.5 -443.5q0 -308 135.5 -455t349.5 -147q224 0 352 165t128 460q0 281 -130 432.5
t-350 151.5zM887 1518h-113l-219 264h198z" />
    <glyph glyph-name="Uacute" unicode="&#xda;" horiz-adv-x="1473" 
d="M61 1405h459v-102h-49q-64 0 -77 -20.5t-13 -94.5v-684q0 -225 97 -316.5t274 -91.5q175 0 272.5 88.5t97.5 298.5v705q0 75 -13.5 95t-78.5 20h-45v102h426v-102h-51q-59 0 -71.5 -19t-12.5 -82v-708q0 -531 -531 -531q-544 0 -544 520v719q0 60 -16.5 80.5t-86.5 20.5
h-37v102zM742 1518h-113l134 264h198z" />
    <glyph glyph-name="Ucircumflex" unicode="&#xdb;" horiz-adv-x="1473" 
d="M61 1405h459v-102h-49q-64 0 -77 -20.5t-13 -94.5v-684q0 -225 97 -316.5t274 -91.5q175 0 272.5 88.5t97.5 298.5v705q0 75 -13.5 95t-78.5 20h-45v102h426v-102h-51q-59 0 -71.5 -19t-12.5 -82v-708q0 -531 -531 -531q-544 0 -544 520v719q0 60 -16.5 80.5t-86.5 20.5
h-37v102zM597 1518h-138l197 264h164l194 -264h-143l-137 180z" />
    <glyph glyph-name="Ugrave" unicode="&#xd9;" horiz-adv-x="1473" 
d="M61 1405h459v-102h-49q-64 0 -77 -20.5t-13 -94.5v-684q0 -225 97 -316.5t274 -91.5q175 0 272.5 88.5t97.5 298.5v705q0 75 -13.5 95t-78.5 20h-45v102h426v-102h-51q-59 0 -71.5 -19t-12.5 -82v-708q0 -531 -531 -531q-544 0 -544 520v719q0 60 -16.5 80.5t-86.5 20.5
h-37v102zM844 1518h-113l-219 264h198z" />
    <glyph glyph-name="dotlessi" unicode="&#x131;" horiz-adv-x="512" 
d="M39 956l299 27v-799q0 -62 9.5 -77t58.5 -15h47v-92h-396v92h47q48 0 61 16t13 85v563q0 74 -13.5 90t-74.5 16h-51v94z" />
    <glyph glyph-name="circumflex" unicode="&#x2c6;" 
d="M201 1110h-138l197 264h164l194 -264h-143l-137 180z" />
    <glyph glyph-name="tilde" unicode="&#x2dc;" 
d="M537 1303h110q-2 -90 -53 -142.5t-117 -52.5q-58 0 -143 39l-68 31q-30 12 -49 12q-57 0 -70 -80h-112q17 193 188 193q60 0 123.5 -33.5t80.5 -40t38 -6.5q62 0 72 80z" />
    <glyph glyph-name="macron" unicode="&#x2c9;" 
d="M39 1221h604v-111h-604v111z" />
    <glyph glyph-name="breve" unicode="&#x2d8;" 
d="M92 1364h109q18 -143 143 -143q115 0 139 143h107q2 -105 -66.5 -179.5t-181.5 -74.5q-103 0 -173 65t-77 189z" />
    <glyph glyph-name="dotaccent" unicode="&#x2d9;" 
d="M250 1200q0 39 27 64.5t65 25.5q37 0 63.5 -26t26.5 -64q0 -37 -26.5 -63.5t-63.5 -26.5t-64.5 26.5t-27.5 63.5z" />
    <glyph glyph-name="ring" unicode="&#x2da;" 
d="M156 1294q0 76 54.5 130.5t131.5 54.5q75 0 129.5 -54.5t54.5 -130.5t-54.5 -130t-129.5 -54q-77 0 -131.5 54t-54.5 130zM451 1294q0 46 -32.5 78.5t-78.5 32.5q-45 0 -78 -32.5t-33 -78.5t32.5 -78t78.5 -32t78.5 32t32.5 78z" />
    <glyph glyph-name="cedilla" unicode="&#xb8;" 
d="M303 20h113l-33 -102q80 -5 121 -48.5t41 -98.5q0 -72 -59 -121t-175 -49q-83 0 -176 26v94q84 -24 160 -24q117 0 117 74q0 34 -31 52.5t-76 18.5q-27 0 -51 -2z" />
    <glyph glyph-name="hungarumlaut" unicode="&#x2dd;" 
d="M242 1110h-113l133 264h199zM543 1110h-113l133 264h199z" />
    <glyph glyph-name="ogonek" unicode="&#x2db;" 
d="M309 14h142q-152 -98 -152 -196q0 -50 35 -77.5t82 -27.5q28 0 88 13v-97q-59 -16 -113 -16q-100 0 -158.5 50.5t-58.5 133.5q0 121 135 217z" />
    <glyph glyph-name="caron" unicode="&#x2c7;" 
d="M481 1374h137l-196 -264h-164l-195 264h144l137 -180z" />
    <glyph glyph-name="Lslash" unicode="&#x141;" horiz-adv-x="1174" 
d="M98 1405h471v-102h-53q-76 0 -89 -19t-13 -90v-342l219 164v-154l-219 -166v-573h485q52 0 69 16.5t17 79.5v113h133v-332h-1020v100h43q68 0 82.5 20t14.5 85v360l-140 -104v155l140 103v491q0 55 -15.5 74t-81.5 19h-43v102z" />
    <glyph glyph-name="lslash" unicode="&#x142;" horiz-adv-x="512" 
d="M33 1319v90l307 33v-592l147 147v-143l-147 -147v-517q0 -66 11.5 -82t70.5 -16h33v-92h-402v92h31q62 0 77 15t15 83v359l-149 -152v144l149 151v533q0 52 -6 69.5t-32 22t-105 2.5z" />
    <glyph glyph-name="Scaron" unicode="&#x160;" horiz-adv-x="1087" 
d="M950 1354v-310h-137v54q0 102 -19 132t-79.5 60.5t-159.5 30.5q-123 0 -187.5 -62.5t-64.5 -148.5q0 -72 38.5 -124t103.5 -92t190 -102.5t196 -110t119.5 -123.5t48.5 -189q0 -168 -117.5 -287t-346.5 -119q-255 0 -441 82v352h148v-78q0 -67 16.5 -108t59 -70.5
t97.5 -43t115 -13.5q125 0 207 68.5t82 179.5q0 81 -45 147.5t-212 150t-247.5 136t-135 130t-54.5 185.5q0 148 116.5 254.5t325.5 106.5q83 0 189 -22.5t194 -65.5zM684 1782h137l-196 -264h-164l-195 264h144l137 -180z" />
    <glyph glyph-name="scaron" unicode="&#x161;" horiz-adv-x="854" 
d="M729 934v-254h-123v72q0 84 -50.5 114.5t-131.5 30.5q-84 0 -129 -39t-45 -100q0 -65 47.5 -101.5t164 -86.5t176 -84.5t100 -89.5t40.5 -136q0 -121 -91.5 -206t-274.5 -85q-165 0 -328 64v276h133v-78q0 -91 52 -124t145 -33q101 0 151.5 45.5t50.5 116.5
q0 96 -165 176l-95 45q-95 45 -142 73.5t-82.5 77.5t-35.5 121q0 113 88.5 189.5t247.5 76.5q165 0 297 -61zM568 1374h137l-196 -264h-164l-195 264h144l137 -180z" />
    <glyph glyph-name="Zcaron" unicode="&#x17d;" horiz-adv-x="1260" 
d="M117 1405h1030v-131l-848 -1143h637q71 0 91 14t20 101v112h129v-358h-1088v131l848 1143h-549q-99 0 -120 -14t-21 -86v-115h-129v346zM770 1782h137l-196 -264h-164l-195 264h144l137 -180z" />
    <glyph glyph-name="zcaron" unicode="&#x17e;" horiz-adv-x="897" 
d="M70 700v271h759v-115l-585 -741h385q62 0 76 11t14 62v101h129v-289h-799v115l586 741h-359q-52 0 -64.5 -10t-12.5 -62v-84h-129zM590 1374h137l-196 -264h-164l-195 264h144l137 -180z" />
    <glyph glyph-name="brokenbar" unicode="&#xa6;" horiz-adv-x="1110" 
d="M475 1405h160v-823h-160v823zM475 334h160v-823h-160v823z" />
    <glyph glyph-name="Eth" unicode="&#xd0;" horiz-adv-x="1493" 
d="M229 635h-135v129h135v438q0 61 -13.5 81t-76.5 20h-47v102h600q151 0 264.5 -26t213 -107.5t160.5 -224t61 -336.5q0 -298 -159.5 -504.5t-492.5 -206.5h-647v100h47q64 0 77 19.5t13 91.5v424zM782 635h-376v-512h284q210 4 311.5 78.5t150 199.5t48.5 301
q0 201 -59.5 321.5t-147 174t-168 66t-168.5 12.5h-251v-512h376v-129z" />
    <glyph glyph-name="eth" unicode="&#xf0;" horiz-adv-x="1120" 
d="M565 1311l228 127l47 -92l-187 -103q177 -142 278 -334t101 -397q0 -243 -131.5 -394t-363.5 -151q-211 0 -330 136.5t-119 349.5q0 228 123 369t324 141q105 0 202 -45l4 4q-94 152 -209 254l-241 -134l-47 91l202 112q-88 65 -153 94l61 103q98 -47 211 -131zM559 848
q-138 0 -218.5 -106.5t-80.5 -288.5q0 -173 85.5 -271t213.5 -98q136 0 216.5 105.5t80.5 281.5t-75.5 276.5t-221.5 100.5z" />
    <glyph glyph-name="Yacute" unicode="&#xdd;" horiz-adv-x="1343" 
d="M14 1405h469v-102h-41q-73 0 -73 -37q0 -13 34 -72l289 -487l295 467q43 66 43 90q0 18 -13.5 28.5t-66.5 10.5h-57v102h436v-102q-59 0 -88 -9.5t-78 -87.5l-407 -643v-360q0 -68 15.5 -85.5t92.5 -17.5h39v-100h-469v100h49q67 0 82 20.5t15 82.5v350l-387 641
q-38 61 -67 85t-81 24h-31v102zM678 1518h-113l134 264h198z" />
    <glyph glyph-name="yacute" unicode="&#xfd;" horiz-adv-x="1044" 
d="M6 971h420v-94h-49q-60 0 -60 -37q0 -16 15 -54l219 -581l199 532q24 74 24 99q0 41 -65 41h-37v94h366v-94q-65 0 -85.5 -15.5t-49.5 -89.5l-360 -922q-71 -183 -140.5 -244t-181.5 -61q-87 0 -166 37v193h115v-33q0 -86 70 -86q53 0 86.5 43.5t75.5 143.5t57 157
l-289 737q-38 97 -66 118.5t-98 21.5v94zM529 1110h-113l134 264h198z" />
    <glyph glyph-name="Thorn" unicode="&#xde;" horiz-adv-x="1208" 
d="M88 1405h455v-102h-54q-56 0 -72 -16.5t-16 -59.5v-144h277q220 0 331 -98t111 -280q0 -190 -115.5 -291t-338.5 -101h-265v-120q0 -53 12 -68.5t25 -17t31.5 -4.5t19.5 -3h68v-100h-469v100h57q54 0 68 18t14 68v1031l-3 36q-3 35 -22.5 42.5t-56.5 7.5h-57v102z
M401 963v-531h199q344 0 344 264q0 108 -51.5 169.5t-111.5 79.5t-181 18h-199z" />
    <glyph glyph-name="thorn" unicode="&#xfe;" horiz-adv-x="1110" 
d="M23 1409l292 33v-615h4q105 166 299 166q187 0 296.5 -136t109.5 -349q0 -222 -115 -380.5t-315 -158.5q-170 0 -279 129v-336q0 -70 12 -84t68 -14h54v-94h-412v94h37q60 0 71 15t11 90v1450q0 67 -12 83.5t-70 16.5h-51v90zM580 860q-124 0 -201.5 -105.5t-77.5 -273.5
q0 -191 80.5 -287t204.5 -96q129 0 196.5 106t67.5 275q0 176 -69.5 278.5t-200.5 102.5z" />
    <glyph glyph-name="minus" unicode="&#x2212;" horiz-adv-x="1366" 
d="M135 745h1096v-157h-1096v157z" />
    <glyph glyph-name="multiply" unicode="&#xd7;" horiz-adv-x="1366" 
d="M176 1063l111 111l397 -398l397 398l111 -111l-397 -397l395 -396l-111 -110l-395 395l-395 -395l-111 110l395 396z" />
    <glyph glyph-name="onesuperior" unicode="&#xb9;" horiz-adv-x="641" 
d="M340 1442h70v-608q0 -53 8.5 -63.5t54.5 -10.5h43v-64h-340v64h45q46 0 56 9t10 56v379q0 52 -5.5 64t-29.5 12h-39l-53 -2v61q70 8 105.5 27.5t74.5 75.5z" />
    <glyph glyph-name="twosuperior" unicode="&#xb2;" horiz-adv-x="641" 
d="M78 1223v133q104 88 241 88q109 0 171.5 -57t62.5 -134q0 -87 -72 -185.5t-256 -268.5h191q42 0 51.5 5t9.5 32v51h101v-191h-521v76q16 7 192.5 181.5t176.5 293.5q0 47 -32.5 82t-96.5 35q-117 0 -117 -100v-41h-102z" />
    <glyph glyph-name="threesuperior" unicode="&#xb3;" horiz-adv-x="641" 
d="M92 1235v141q112 68 219 68q118 0 181 -53.5t63 -133.5q0 -113 -131 -170v-4q143 -22 143 -161q0 -106 -74 -173t-206 -67q-121 0 -219 55v154h104v-37q0 -47 20.5 -69.5t102.5 -22.5q64 0 104.5 39.5t40.5 101.5q0 69 -41.5 101t-171.5 38v84q203 1 203 125
q0 53 -31.5 85t-93.5 32q-77 0 -96 -32.5t-19 -100.5h-98z" />
    <glyph glyph-name="onehalf" unicode="&#xbd;" horiz-adv-x="1665" 
d="M360 1442h70v-608q0 -53 8.5 -63.5t54.5 -10.5h43v-64h-340v64h45q46 0 56 9t10 56v379q0 52 -5.5 64t-29.5 12h-39l-53 -2v61q70 8 105.5 27.5t74.5 75.5zM1213 1442h123l-884 -1479h-123zM1082 527v133q104 88 241 88q109 0 171.5 -57t62.5 -134q0 -87 -72 -185.5
t-256 -268.5h191q42 0 51.5 5t9.5 32v51h101v-191h-521v76q16 7 192.5 181.5t176.5 293.5q0 47 -32.5 82t-96.5 35q-117 0 -117 -100v-41h-102z" />
    <glyph glyph-name="onequarter" unicode="&#xbc;" horiz-adv-x="1665" 
d="M360 1442h70v-608q0 -53 8.5 -63.5t54.5 -10.5h43v-64h-340v64h45q46 0 56 9t10 56v379q0 52 -5.5 64t-29.5 12h-39l-53 -2v61q70 8 105.5 27.5t74.5 75.5zM1238 1442h123l-884 -1479h-123zM1364 746h107v-484h96v-79h-96v-74q0 -32 6.5 -39.5t40.5 -7.5h41v-62h-289v62
h43q30 0 38.5 5.5t8.5 33.5v82h-356v92zM1356 592l-248 -323h252v323h-4z" />
    <glyph glyph-name="threequarters" unicode="&#xbe;" horiz-adv-x="1665" 
d="M112 1235v141q112 68 219 68q118 0 181 -53.5t63 -133.5q0 -113 -131 -170v-4q143 -22 143 -161q0 -106 -74 -173t-206 -67q-121 0 -219 55v154h104v-37q0 -47 20.5 -69.5t102.5 -22.5q64 0 104.5 39.5t40.5 101.5q0 69 -41.5 101t-171.5 38v84q203 1 203 125
q0 53 -31.5 85t-93.5 32q-77 0 -96 -32.5t-19 -100.5h-98zM1214 1442h123l-884 -1479h-123zM1364 746h107v-484h96v-79h-96v-74q0 -32 6.5 -39.5t40.5 -7.5h41v-62h-289v62h43q30 0 38.5 5.5t8.5 33.5v82h-356v92zM1356 592l-248 -323h252v323h-4z" />
    <glyph glyph-name="uni00AD" unicode="&#xad;" horiz-adv-x="662" 
d="M63 559h535v-158h-535v158z" />
    <glyph glyph-name="uni00AF" unicode="&#xaf;" horiz-adv-x="1024" 
d="M1036 1559h-1048v102h1048v-102z" />
    <glyph glyph-name="uniF003" unicode="&#xf003;" horiz-adv-x="641" 
d="M395 1442h107v-484h96v-79h-96v-74q0 -32 6.5 -39.5t40.5 -7.5h41v-62h-289v62h43q30 0 38.5 5.5t8.5 33.5v82h-356v92zM387 1288l-248 -323h252v323h-4z" />
    </font>
</defs>
</svg>
